<svg width="138" height="50" viewBox="0 0 138 50" fill="none" xmlns="http://www.w3.org/2000/svg">
<path d="M109.792 37.4494C117.993 37.4494 123.434 32.4789 123.434 24.5556V24.4202C123.434 16.5807 117.993 11.5263 109.792 11.5263H104.208V37.4269L109.792 37.4494ZM90.5 -0.000854492H109.581C127.249 -0.000854492 137.5 10.0757 137.5 24.2171V24.3589C137.5 38.5003 127.109 48.9991 109.301 48.9991H90.5V-0.000854492Z" fill="white"/>
<path d="M0.5 -0.000854492H13.6031V37.4494H36.5V48.9991H0.5V-0.000854492Z" fill="white"/>
<mask id="mask0_2322_17272" style="mask-type:alpha" maskUnits="userSpaceOnUse" x="37" y="0" width="53" height="51">
<path d="M75.722 25.1351C75.722 32.0264 70.8603 37.8878 63.5331 37.8878C56.2815 37.8878 51.278 31.8882 51.278 25.0158V24.8777C51.278 17.9927 56.1397 12.1281 63.3975 12.1281C70.7248 12.1281 75.722 18.1309 75.722 25.0158V25.1351ZM63.5678 0.00012207C48.6706 0.00012207 37.5 11.1957 37.5 25.0033V25.1414C37.5 38.9553 48.535 50.0001 63.4291 50.0001C78.3231 50.0001 89.5 38.8077 89.5 25.0033V24.8651C89.5 11.0512 78.465 0.00012207 63.5678 0.00012207Z" fill="white"/>
</mask>
<g mask="url(#mask0_2322_17272)">
<path d="M35.5 0.00012207H90.5V10.0001L68.5 20.0001V31.0001L90.5 41.0001V50.0001H35.5V0.00012207Z" fill="white"/>
</g>
</svg>
