<svg width="292" height="86" viewBox="0 0 292 86" fill="none" xmlns="http://www.w3.org/2000/svg">
<g clip-path="url(#clip0_2144_47130)">
<path d="M292.006 1.19922H248.473V12.0772H264.097V51.1281H276.374V12.0772H292.006V1.19922Z" fill="black"/>
<path d="M59.4883 1.19238H73.2571V39.3368H97.3257V51.0998H59.4883V1.19238Z" fill="black"/>
<path d="M102.336 1.19238H142.65V12.9555H116.105V20.5073H139.645V31.7778H116.105V39.3368H142.65V51.0998H102.336V1.19238Z" fill="black"/>
<path d="M148.664 1.19238H167.829C185.574 1.19238 195.873 11.4565 195.873 25.8535V26.0034C195.873 40.4003 185.438 51.0998 167.551 51.0998H148.664V1.19238ZM168.043 39.3368C176.28 39.3368 181.741 34.2689 181.741 26.2103V26.0747C181.741 18.0875 176.28 12.9555 168.043 12.9555H162.419V39.3653L168.043 39.3368Z" fill="black"/>
<path d="M27.0308 0C11.5846 0 0 11.706 0 26.1457V26.2885C0 40.7283 11.4205 52.2844 26.8881 52.2844C42.3557 52.2844 53.926 40.5784 53.926 26.1457V26.003C53.926 11.5632 42.5055 0 27.0379 0M39.6504 26.2814C39.6504 33.4905 34.6111 39.6148 27.0165 39.6148C19.4219 39.6148 14.3113 33.3478 14.3113 26.1457V26.003C14.3113 18.801 19.3506 12.6696 26.8738 12.6696C34.397 12.6696 39.6504 18.9437 39.6504 26.1457V26.2814Z" fill="black"/>
<path d="M237.323 31.8906H203.318V51.0984H237.323V31.8906Z" fill="#A50034"/>
<path d="M55.8979 71.13H58.0829V84.905H55.8979V71.13ZM62.8222 75.329L62.8982 76.089C63.0756 75.9623 63.2592 75.8483 63.4492 75.747C63.6519 75.6457 63.8672 75.557 64.0952 75.481C64.8299 75.2277 65.5139 75.101 66.1472 75.101C66.7806 75.101 67.2999 75.1833 67.7052 75.348C68.1106 75.5 68.4272 75.728 68.6552 76.032C68.8959 76.3233 69.0606 76.6907 69.1492 77.134C69.2379 77.5647 69.2822 78.0587 69.2822 78.616V84.905H67.1542V79.072C67.1542 78.7427 67.1352 78.4387 67.0972 78.16C67.0592 77.8813 66.9832 77.6407 66.8692 77.438C66.7552 77.2353 66.5906 77.077 66.3752 76.963C66.1599 76.849 65.8749 76.792 65.5202 76.792C65.1149 76.792 64.7412 76.849 64.3992 76.963C64.0699 77.0643 63.7786 77.2037 63.5252 77.381L63.1452 77.628V84.905H61.0172V77.875L60.8462 75.329H62.8222ZM77.8815 75.329V76.963H74.5375V84.905H72.4285V76.963H71.0035V75.329H72.4095V74.189C72.4095 73.467 72.4982 72.8653 72.6755 72.384C72.8655 71.89 73.1252 71.5037 73.4545 71.225C73.7838 70.9337 74.1828 70.731 74.6515 70.617C75.1202 70.4903 75.6395 70.427 76.2095 70.427C76.5895 70.427 76.9695 70.4523 77.3495 70.503C77.7295 70.5537 78.0715 70.6423 78.3755 70.769L77.9195 72.327C77.6788 72.2257 77.4318 72.156 77.1785 72.118C76.9252 72.08 76.6718 72.061 76.4185 72.061C75.7345 72.061 75.2468 72.2257 74.9555 72.555C74.6768 72.8717 74.5375 73.4163 74.5375 74.189V75.329H77.8815ZM79.098 71.282H81.264V73.201H79.098V71.282ZM79.117 75.329H81.245V84.905H79.117V75.329ZM85.695 75.329L85.771 76.089C85.9483 75.9623 86.132 75.8483 86.322 75.747C86.5246 75.6457 86.74 75.557 86.968 75.481C87.7026 75.2277 88.3866 75.101 89.02 75.101C89.6533 75.101 90.1726 75.1833 90.578 75.348C90.9833 75.5 91.3 75.728 91.528 76.032C91.7686 76.3233 91.9333 76.6907 92.022 77.134C92.1106 77.5647 92.155 78.0587 92.155 78.616V84.905H90.027V79.072C90.027 78.7427 90.008 78.4387 89.97 78.16C89.932 77.8813 89.856 77.6407 89.742 77.438C89.628 77.2353 89.4633 77.077 89.248 76.963C89.0326 76.849 88.7476 76.792 88.393 76.792C87.9876 76.792 87.614 76.849 87.272 76.963C86.9426 77.0643 86.6513 77.2037 86.398 77.381L86.018 77.628V84.905H83.89V77.875L83.719 75.329H85.695ZM94.6742 71.282H96.8402V73.201H94.6742V71.282ZM94.6932 75.329H96.8212V84.905H94.6932V75.329ZM102.259 76.963V81.276C102.259 81.6053 102.272 81.903 102.297 82.169C102.323 82.435 102.386 82.663 102.487 82.853C102.601 83.043 102.76 83.195 102.962 83.309C103.165 83.4103 103.45 83.461 103.817 83.461C104.147 83.461 104.47 83.423 104.786 83.347C105.103 83.271 105.388 83.1697 105.641 83.043L106.021 84.506C105.122 84.924 104.159 85.133 103.133 85.133C102.513 85.133 102.006 85.057 101.613 84.905C101.233 84.7403 100.929 84.5123 100.701 84.221C100.486 83.9297 100.334 83.5813 100.245 83.176C100.169 82.7707 100.131 82.321 100.131 81.827V76.963H98.4973V75.538L100.112 75.348V73.429L102.259 73.049V75.329H105.698V76.963H102.259ZM107.69 71.282H109.856V73.201H107.69V71.282ZM107.709 75.329H109.837V84.905H107.709V75.329ZM120.044 76.621L114.344 83.271H120.082V84.905H111.798V83.613L117.479 76.963H112.026V75.329H120.044V76.621ZM126.166 85.133C125.292 85.133 124.557 85.0317 123.962 84.829C123.379 84.6137 122.904 84.297 122.537 83.879C122.182 83.4483 121.929 82.9163 121.777 82.283C121.625 81.6497 121.549 80.9087 121.549 80.06C121.549 76.754 123.069 75.101 126.109 75.101C126.932 75.101 127.604 75.2213 128.123 75.462C128.655 75.69 129.067 76.013 129.358 76.431C129.662 76.849 129.871 77.3493 129.985 77.932C130.099 78.502 130.156 79.1227 130.156 79.794V80.649H123.753C123.778 81.6117 123.956 82.3083 124.285 82.739C124.716 83.2837 125.45 83.556 126.489 83.556C127.211 83.556 127.806 83.4673 128.275 83.29C128.756 83.1127 129.181 82.9417 129.548 82.777L130.004 84.145C129.827 84.259 129.599 84.3793 129.32 84.506C129.041 84.62 128.731 84.7277 128.389 84.829C128.047 84.9177 127.68 84.9873 127.287 85.038C126.907 85.1013 126.533 85.133 126.166 85.133ZM127.933 79.167C127.933 78.255 127.781 77.5963 127.477 77.191C127.173 76.773 126.704 76.564 126.071 76.564C125.362 76.564 124.836 76.7287 124.494 77.058C124.165 77.3747 123.949 77.8687 123.848 78.54L123.772 79.167H127.933ZM143.712 79.015V84.905H141.527V79.034C141.35 78.768 141.128 78.426 140.862 78.008C140.609 77.59 140.324 77.134 140.007 76.64C139.703 76.1333 139.386 75.614 139.057 75.082C138.728 74.5373 138.405 74.018 138.088 73.524C137.784 73.03 137.499 72.574 137.233 72.156C136.98 71.7253 136.771 71.3833 136.606 71.13H139.152L142.553 77.001H142.724L146.144 71.13H148.633L143.712 79.015ZM153.988 85.133C153.127 85.133 152.411 85.019 151.841 84.791C151.284 84.563 150.834 84.2337 150.492 83.803C150.163 83.3597 149.928 82.8277 149.789 82.207C149.65 81.5737 149.58 80.8643 149.58 80.079C149.58 78.3817 149.96 77.1277 150.72 76.317C151.493 75.5063 152.734 75.101 154.444 75.101C155.28 75.101 155.983 75.2213 156.553 75.462C157.123 75.69 157.579 76.0257 157.921 76.469C158.263 76.8997 158.504 77.4317 158.643 78.065C158.795 78.6857 158.871 79.3887 158.871 80.174C158.871 81.8713 158.478 83.1253 157.693 83.936C156.908 84.734 155.673 85.133 153.988 85.133ZM153.988 83.613C154.507 83.613 154.938 83.537 155.28 83.385C155.635 83.233 155.913 83.005 156.116 82.701C156.331 82.397 156.477 82.0233 156.553 81.58C156.642 81.124 156.686 80.5983 156.686 80.003C156.686 79.547 156.654 79.11 156.591 78.692C156.528 78.274 156.407 77.913 156.23 77.609C156.065 77.2923 155.837 77.0453 155.546 76.868C155.267 76.678 154.9 76.583 154.444 76.583C153.925 76.583 153.494 76.6653 153.152 76.83C152.81 76.982 152.531 77.2163 152.316 77.533C152.113 77.837 151.968 78.217 151.879 78.673C151.803 79.129 151.765 79.6547 151.765 80.25C151.765 80.7187 151.79 81.1557 151.841 81.561C151.904 81.9663 152.018 82.321 152.183 82.625C152.348 82.929 152.576 83.1697 152.867 83.347C153.158 83.5243 153.532 83.613 153.988 83.613ZM169.156 82.359L169.346 84.905H167.351L167.256 84.145C167.079 84.2843 166.889 84.4047 166.686 84.506C166.496 84.5947 166.3 84.6707 166.097 84.734C165.743 84.8733 165.388 84.9747 165.033 85.038C164.691 85.1013 164.356 85.133 164.026 85.133C163.406 85.133 162.893 85.057 162.487 84.905C162.095 84.7403 161.778 84.5123 161.537 84.221C161.309 83.917 161.151 83.5497 161.062 83.119C160.974 82.6757 160.929 82.1753 160.929 81.618V75.329H163.095V81.181C163.095 81.5103 163.108 81.8143 163.133 82.093C163.171 82.359 163.241 82.5997 163.342 82.815C163.456 83.0177 163.615 83.176 163.817 83.29C164.033 83.404 164.324 83.461 164.691 83.461C165.084 83.461 165.445 83.4103 165.774 83.309C166.104 83.2077 166.401 83.0683 166.667 82.891C166.781 82.7897 166.895 82.7073 167.009 82.644V75.329H169.156V82.359ZM173.52 75.329L173.653 76.488C173.97 76.0827 174.318 75.7977 174.698 75.633C175.332 75.2783 175.978 75.101 176.636 75.101C176.94 75.101 177.219 75.1327 177.472 75.196C177.726 75.2467 177.935 75.3037 178.099 75.367L177.567 77.115C177.251 76.9377 176.858 76.849 176.389 76.849C175.832 76.849 175.319 77.0073 174.85 77.324C174.686 77.4253 174.527 77.5393 174.375 77.666C174.236 77.78 174.09 77.913 173.938 78.065V84.905H171.81V78.008L171.544 75.329H173.52ZM202.967 71.13L199.376 84.905H196.165L193.524 72.859H193.334L190.807 84.905H187.558L183.834 71.13H186.228L189.135 83.195H189.287L191.833 71.13H195.12L197.723 83.195H197.913L200.687 71.13H202.967ZM208.394 85.133C207.533 85.133 206.817 85.019 206.247 84.791C205.69 84.563 205.24 84.2337 204.898 83.803C204.569 83.3597 204.334 82.8277 204.195 82.207C204.056 81.5737 203.986 80.8643 203.986 80.079C203.986 78.3817 204.366 77.1277 205.126 76.317C205.899 75.5063 207.14 75.101 208.85 75.101C209.686 75.101 210.389 75.2213 210.959 75.462C211.529 75.69 211.985 76.0257 212.327 76.469C212.669 76.8997 212.91 77.4317 213.049 78.065C213.201 78.6857 213.277 79.3887 213.277 80.174C213.277 81.8713 212.884 83.1253 212.099 83.936C211.314 84.734 210.079 85.133 208.394 85.133ZM208.394 83.613C208.913 83.613 209.344 83.537 209.686 83.385C210.041 83.233 210.319 83.005 210.522 82.701C210.737 82.397 210.883 82.0233 210.959 81.58C211.048 81.124 211.092 80.5983 211.092 80.003C211.092 79.547 211.06 79.11 210.997 78.692C210.934 78.274 210.813 77.913 210.636 77.609C210.471 77.2923 210.243 77.0453 209.952 76.868C209.673 76.678 209.306 76.583 208.85 76.583C208.331 76.583 207.9 76.6653 207.558 76.83C207.216 76.982 206.937 77.2163 206.722 77.533C206.519 77.837 206.374 78.217 206.285 78.673C206.209 79.129 206.171 79.6547 206.171 80.25C206.171 80.7187 206.196 81.1557 206.247 81.561C206.31 81.9663 206.424 82.321 206.589 82.625C206.754 82.929 206.982 83.1697 207.273 83.347C207.564 83.5243 207.938 83.613 208.394 83.613ZM217.197 75.329L217.33 76.488C217.647 76.0827 217.995 75.7977 218.375 75.633C219.009 75.2783 219.655 75.101 220.313 75.101C220.617 75.101 220.896 75.1327 221.149 75.196C221.403 75.2467 221.612 75.3037 221.776 75.367L221.244 77.115C220.928 76.9377 220.535 76.849 220.066 76.849C219.509 76.849 218.996 77.0073 218.527 77.324C218.363 77.4253 218.204 77.5393 218.052 77.666C217.913 77.78 217.767 77.913 217.615 78.065V84.905H215.487V78.008L215.221 75.329H217.197ZM226.289 84.962C226.264 84.9747 226.194 84.981 226.08 84.981C226.055 85.0063 226.017 85.019 225.966 85.019C225.928 85.019 225.89 85.019 225.852 85.019H225.662C225.181 85.019 224.776 84.9557 224.446 84.829C224.117 84.7023 223.851 84.5187 223.648 84.278C223.458 84.0373 223.319 83.7397 223.23 83.385C223.154 83.0303 223.116 82.625 223.116 82.169V70.693L225.244 70.427V82.131C225.244 82.4223 225.263 82.6567 225.301 82.834C225.339 82.9987 225.396 83.1253 225.472 83.214C225.561 83.3027 225.669 83.366 225.795 83.404C225.935 83.4293 226.099 83.442 226.289 83.442V84.962ZM231.59 85.133C230.197 85.133 229.184 84.715 228.55 83.879C227.93 83.0303 227.619 81.846 227.619 80.326C227.619 79.566 227.702 78.8693 227.866 78.236C228.031 77.59 228.297 77.039 228.664 76.583C229.032 76.1143 229.507 75.7533 230.089 75.5C230.672 75.234 231.381 75.101 232.217 75.101C232.699 75.101 233.123 75.1643 233.49 75.291C233.604 75.3163 233.712 75.3543 233.813 75.405C233.927 75.443 234.041 75.4873 234.155 75.538V70.693L236.283 70.427V82.397L236.454 84.905H234.592L234.421 84.278C234.105 84.506 233.744 84.7023 233.338 84.867C233.072 84.9683 232.794 85.038 232.502 85.076C232.224 85.114 231.92 85.133 231.59 85.133ZM233.604 76.811C233.427 76.7603 233.25 76.7223 233.072 76.697C232.895 76.659 232.718 76.64 232.54 76.64C231.692 76.64 231.027 76.9123 230.545 77.457C230.064 78.0017 229.823 78.9263 229.823 80.231C229.823 80.725 229.861 81.1747 229.937 81.58C230.026 81.9853 230.165 82.34 230.355 82.644C230.545 82.9353 230.792 83.1633 231.096 83.328C231.413 83.4927 231.799 83.575 232.255 83.575C232.775 83.575 233.224 83.461 233.604 83.233C233.706 83.1697 233.794 83.1063 233.87 83.043C233.959 82.9797 234.054 82.91 234.155 82.834V77.096C234.054 77.0327 233.959 76.982 233.87 76.944C233.794 76.8933 233.706 76.849 233.604 76.811Z" fill="black"/>
</g>
<defs>
<clipPath id="clip0_2144_47130">
<rect width="292" height="85.5108" fill="white"/>
</clipPath>
</defs>
</svg>
