<svg width="360" height="91" viewBox="0 0 360 91" fill="none" xmlns="http://www.w3.org/2000/svg">
<path d="M122.132 81.1639C122.027 80.7634 121.714 79.8057 121.488 79.2834C121.923 79.1789 122.306 78.7959 122.863 78.1516C123.455 77.5248 125.214 75.122 126.328 72.754L128.087 73.8683C126.816 76.1319 125.127 78.4476 123.472 80.1366V80.1714C123.472 80.1714 122.132 80.7982 122.132 81.1639ZM122.132 81.1639L122.01 79.5272L122.898 78.9003L127.773 78.082C127.704 78.6217 127.669 79.4227 127.704 79.858C123.351 80.6937 122.602 80.9027 122.132 81.1639ZM122.01 76.9154C121.905 76.5149 121.557 75.4876 121.313 74.9479C121.679 74.8434 121.992 74.4777 122.376 73.9206C122.759 73.3982 123.943 71.274 124.569 69.289L126.572 70.2293C125.701 72.2142 124.413 74.3559 123.142 75.8359V75.9055C123.142 75.9055 122.01 76.5497 122.01 76.9154ZM122.01 76.9154L121.958 75.418L122.811 74.826L125.719 74.617C125.614 75.1394 125.51 75.9055 125.51 76.3234C122.915 76.6194 122.341 76.7587 122.01 76.9154ZM121.54 82.9224C123.089 82.6439 125.405 82.1389 127.651 81.6514L127.843 83.4622C125.788 84.002 123.612 84.5417 121.923 84.977L121.54 82.9224ZM129.671 74.9653H135.382V76.8632H129.671V74.9653ZM129.48 83.0269H135.191V84.8726H129.48V83.0269ZM128.679 78.2561H136.2V85.6909H134.076V80.1017H130.698V85.7083H128.679V78.2561ZM133.223 69.9333C134.181 72.0401 136.026 74.1469 138.011 75.2439C137.541 75.6443 136.88 76.4279 136.549 76.9502C134.494 75.5747 132.683 73.0674 131.621 70.4556L133.223 69.9333ZM131.743 69.289L133.711 69.8462C132.666 72.8584 130.907 75.418 128.522 77.1243C128.208 76.689 127.495 75.9229 127.059 75.5747C129.218 74.1643 130.925 71.7441 131.743 69.289ZM139.16 73.5201H155.04V75.5399H139.16V73.5201ZM141.528 69.8288H143.705V82.6961H154.605V84.7333H141.528V69.8288ZM146.056 69.4631H148.145V78.8307H150.548V69.6373H152.742V80.746H146.056V69.4631ZM160.42 74.4081V75.6792H168.639V74.4081H160.42ZM160.42 71.6048V72.841H168.639V71.6048H160.42ZM158.331 69.9159H170.815V77.3507H158.331V69.9159ZM166.915 76.2537C168.064 77.8208 170.328 79.1093 172.765 79.7187C172.295 80.1366 171.668 80.9549 171.372 81.4947C168.813 80.6589 166.549 78.9874 165.156 76.898L166.915 76.2537ZM162.161 76.2363L164.007 76.9502C162.597 78.97 160.246 80.6763 157.774 81.5643C157.46 81.042 156.833 80.2584 156.381 79.8406C158.731 79.1789 161.012 77.8034 162.161 76.2363ZM160.925 79.4227H163.084V80.6241C163.084 82.2956 162.579 84.5243 159.097 85.7954C158.818 85.273 158.122 84.4895 157.669 84.089C160.577 83.1488 160.925 81.6688 160.925 80.5544V79.4227ZM163.467 70.769H165.574V76.5149H163.467V70.769ZM166.236 79.4575H168.412V85.6213H166.236V79.4575ZM174.019 75.3831H189.933V77.4377H174.019V75.3831ZM175.064 70.4034H188.993V72.458H175.064V70.4034ZM181.993 77.0895H184.187V82.4349C184.187 83.0966 184.309 83.201 185.058 83.201C185.389 83.201 186.782 83.201 187.182 83.201C187.896 83.201 188.018 82.8354 188.122 80.6067C188.575 80.9723 189.533 81.3206 190.125 81.4599C189.881 84.4373 189.289 85.2382 187.374 85.2382C186.904 85.2382 185.197 85.2382 184.762 85.2382C182.551 85.2382 181.993 84.5592 181.993 82.4523V77.0895ZM180.566 71.2391H182.725C182.533 76.6368 182.289 82.7135 175.151 85.6561C174.855 85.1163 174.263 84.3328 173.723 83.8975C180.479 81.3554 180.426 75.9752 180.566 71.2391ZM191.97 70.0029H196.149V71.866H193.799V85.6213H191.97V70.0029ZM195.784 70.0029H196.132L196.428 69.9333L197.786 70.6994C197.333 72.1794 196.776 73.9206 196.271 75.2787C197.333 76.6542 197.542 77.8904 197.542 78.9177C197.542 80.0495 197.316 80.7982 196.759 81.2161C196.497 81.425 196.149 81.5469 195.766 81.5992C195.453 81.6514 195.035 81.6514 194.634 81.6514C194.634 81.1464 194.46 80.3629 194.182 79.858C194.478 79.8754 194.721 79.8928 194.948 79.8754C195.104 79.858 195.279 79.8232 195.418 79.7361C195.609 79.5794 195.714 79.1963 195.714 78.6914C195.714 77.8556 195.505 76.7064 194.495 75.4876C195 73.9554 195.54 71.6744 195.784 70.5949V70.0029ZM199.266 70.0203H206.213V78.0472H199.266V76.2537H204.193V71.8137H199.266V70.0203ZM199.423 73.1719H205.325V74.8608H199.423V73.1719ZM202.905 76.985C203.584 80.0669 205.047 82.6439 207.624 83.8104C207.153 84.2109 206.527 85.0467 206.213 85.6039C203.427 84.0716 202.017 81.0942 201.216 77.2984L202.905 76.985ZM205.882 78.2213L207.24 79.7013C206.265 80.45 205.099 81.2857 204.228 81.7907L203.131 80.5022C203.967 79.9624 205.186 78.97 205.882 78.2213ZM198.378 85.7257L198.186 83.9149L199.04 83.2533L202.783 82.4349C202.766 83.0269 202.8 83.8801 202.87 84.3328C199.44 85.2034 198.778 85.4472 198.378 85.7257ZM198.378 85.7257C198.221 85.2556 197.786 84.4373 197.49 84.089C197.838 83.8627 198.291 83.3752 198.291 82.5742V70.0203H200.328V83.8279C200.328 83.8279 198.378 84.977 198.378 85.7257ZM220.456 71.065H222.65V83.0443C222.65 84.298 222.354 84.9248 221.518 85.2556C220.648 85.6213 219.376 85.6561 217.583 85.6561C217.461 85.0293 217.043 84.002 216.712 83.4274C217.966 83.5144 219.481 83.497 219.899 83.497C220.317 83.4796 220.456 83.3577 220.456 82.9921V71.065ZM210.496 74.5474H212.534V82.6613H210.496V74.5474ZM211.367 74.5474H217.931V81.3206H211.367V79.3356H215.859V76.5323H211.367V74.5474ZM208.895 70.4904H224.67V72.5973H208.895V70.4904ZM227.02 75.6095H232.557V77.3333H228.953V85.6561H227.02V75.6095ZM231.565 75.6095H233.637V83.5667C233.637 84.4547 233.463 84.977 232.871 85.2904C232.261 85.6039 231.478 85.6387 230.416 85.6387C230.311 85.0815 230.015 84.2806 229.754 83.7756C230.363 83.8104 231.06 83.8104 231.286 83.793C231.495 83.793 231.565 83.7408 231.565 83.5144V75.6095ZM227.908 78.2387H232.731V79.7883H227.908V78.2387ZM227.908 80.7982H232.731V82.3479H227.908V80.7982ZM234.995 69.3935H237.049V74.617C237.049 75.2264 237.154 75.3135 237.798 75.3135C238.094 75.3135 239.365 75.3135 239.713 75.3135C240.288 75.3135 240.392 75.0523 240.48 73.5201C240.88 73.8509 241.733 74.1643 242.29 74.2862C242.081 76.5323 241.507 77.1592 239.922 77.1592C239.487 77.1592 237.937 77.1592 237.52 77.1592C235.482 77.1592 234.995 76.5497 234.995 74.6519V69.3935ZM240.218 70.4208L241.542 71.9356C239.992 72.6843 237.972 73.346 236.248 73.8161C236.161 73.3982 235.883 72.7714 235.656 72.3709C237.276 71.866 239.069 71.0824 240.218 70.4208ZM234.995 77.5248H237.067V83.0269C237.067 83.6537 237.189 83.7234 237.868 83.7234C238.164 83.7234 239.452 83.7234 239.835 83.7234C240.427 83.7234 240.549 83.41 240.636 81.634C241.072 81.9474 241.907 82.2782 242.464 82.4001C242.238 84.8552 241.698 85.5516 240.027 85.5516C239.592 85.5516 237.99 85.5516 237.572 85.5516C235.517 85.5516 234.995 84.9596 234.995 83.0269V77.5248ZM240.358 78.2561L241.716 79.7883C240.131 80.6415 238.024 81.3728 236.231 81.8777C236.127 81.4773 235.831 80.8156 235.622 80.4152C237.311 79.8754 239.174 79.0222 240.358 78.2561ZM230.764 71.0476L232.522 70.386C233.341 71.57 234.211 73.137 234.507 74.234L232.627 75.0001C232.348 73.938 231.547 72.2839 230.764 71.0476ZM226.985 74.7912C226.864 74.3559 226.515 73.3808 226.272 72.8236C226.55 72.754 226.846 72.5102 227.125 72.1446C227.403 71.7963 228.222 70.5601 228.692 69.2716L230.92 69.8636C230.207 71.2566 229.11 72.7888 228.187 73.7116V73.7464C228.187 73.7464 226.985 74.3907 226.985 74.7912ZM226.985 74.7912L226.916 73.3808L227.839 72.8062L233.236 72.4406C233.132 72.9455 233.045 73.6594 233.027 74.0599C228.187 74.4603 227.456 74.5822 226.985 74.7912Z" fill="black"/>
<path d="M59.2822 1.18799H73.0035V39.2008H96.9891V50.9233H59.2822V1.18799Z" fill="black"/>
<path d="M101.982 1.18799H142.158V12.9105H115.704V20.4362H139.163V31.6679H115.704V39.2008H142.158V50.9233H101.982V1.18799Z" fill="black"/>
<path d="M148.153 1.18799H167.252C184.935 1.18799 195.199 11.4167 195.199 25.764V25.9134C195.199 40.2606 184.8 50.9233 166.974 50.9233H148.153V1.18799ZM167.465 39.2008C175.674 39.2008 181.115 34.1504 181.115 26.1196V25.9845C181.115 18.0248 175.674 12.9105 167.465 12.9105H161.86V39.2292L167.465 39.2008Z" fill="black"/>
<path d="M26.9376 0C11.5447 0 0 11.6656 0 26.0555V26.1978C0 40.5878 11.3811 52.104 26.7953 52.104C42.2095 52.104 53.74 40.4384 53.74 26.0555V25.9133C53.74 11.5234 42.3589 0 26.9447 0M39.5136 26.1907C39.5136 33.375 34.4917 39.4781 26.9233 39.4781C19.3549 39.4781 14.2619 33.2327 14.2619 26.0555V25.9133C14.2619 18.7361 19.2838 12.6259 26.7811 12.6259C34.2784 12.6259 39.5136 18.8784 39.5136 26.0555V26.1907Z" fill="black"/>
<path d="M236.506 31.7812H202.619V50.9228H236.506V31.7812Z" fill="#A50034"/>
<path d="M261.823 10.6659H298.939V14.8415H261.823V10.6659ZM266.289 25.3964H285.427V29.572H266.289V25.3964ZM285.253 30.3839H293.778V34.3275H285.253V30.3839ZM277.655 4.86651H282.875V24.1785H277.655V4.86651ZM276.496 12.7537L280.381 14.3195C276.553 19.713 269.594 24.7005 263.273 27.1362C262.519 25.9184 261.069 24.1785 259.967 23.1926C266.231 21.2788 273.074 17.1613 276.496 12.7537ZM283.919 12.9857C287.282 17.1033 293.894 21.0469 300.041 22.7287C298.997 23.7146 297.547 25.5124 296.793 26.7303C290.53 24.4685 283.977 19.539 280.323 14.3195L283.919 12.9857ZM292.27 30.3839H297.373C297.373 30.3839 297.257 31.6018 297.141 32.2397C296.561 38.909 295.866 41.9247 294.532 43.2006C293.546 44.2445 292.328 44.5925 290.704 44.6504C289.254 44.8244 286.47 44.8244 283.629 44.6504C283.513 43.3746 282.991 41.6348 282.353 40.4749C284.963 40.7068 287.514 40.7648 288.5 40.7648C289.428 40.7648 289.95 40.7068 290.356 40.3009C291.226 39.547 291.806 37.0532 292.27 31.0218V30.3839ZM292.85 0.922917L296.329 4.57654C287.92 6.31637 275.104 7.30227 264.549 7.53424C264.433 6.43236 263.853 4.69253 263.389 3.70663C273.712 3.35867 286.007 2.43076 292.85 0.922917ZM272.9 26.5563H277.945C277.133 35.7194 274.698 42.0987 264.317 45.4624C263.853 44.2445 262.519 42.3887 261.475 41.4028C270.464 38.793 272.204 33.8056 272.9 26.5563ZM246.687 4.92451L250.862 1.90882C254.226 4.57654 258.227 8.46215 260.083 11.2459L255.56 14.6675C253.878 11.8258 249.992 7.76622 246.687 4.92451ZM258.691 22.3807V44.5925H253.414V27.4842H246.571V22.3807H258.691ZM284.209 25.3964H288.906C288.268 28.5281 287.456 31.9497 286.76 34.3275H282.005C282.817 31.8338 283.629 28.3541 284.209 25.3964ZM258.169 42.4467C259.967 42.4467 261.359 43.9545 264.259 45.6943C267.912 47.8981 272.842 48.2461 278.931 48.2461C285.195 48.2461 294.068 47.7821 299.751 47.0862C299.171 48.536 298.301 51.2618 298.243 52.7696C293.836 53.0596 284.499 53.3496 278.815 53.3496C272.03 53.3496 267.274 52.7116 263.447 50.5078C261.127 49.058 259.329 47.3762 258.053 47.3762C255.908 47.3762 252.718 50.5078 249.528 54.1615L245.875 49.406C250.108 45.5204 254.69 42.4467 258.169 42.4467ZM308.914 3.47466H325.558V38.5031H308.914V33.4576H320.455V8.46215H308.914V3.47466ZM308.972 18.2631H322.543V23.1926H308.972V18.2631ZM333.562 2.48876H352.352V7.59224H333.562V2.48876ZM333.562 16.4653H352.352V21.4528H333.562V16.4653ZM333.33 30.4999H352.236V35.4294H333.33V30.4999ZM305.956 3.47466H311.06V43.7805H305.956V3.47466ZM350.322 2.48876H355.773V47.2022C355.773 50.3339 355.019 51.8997 352.99 52.8276C350.96 53.6975 347.712 53.8135 342.725 53.8135C342.493 52.3057 341.623 49.9279 340.811 48.4781C344.291 48.652 347.886 48.594 348.872 48.536C349.916 48.536 350.322 48.1881 350.322 47.1442V2.48876ZM330.314 2.48876H335.707V23.3666C335.707 33.2256 334.2 46.3903 323.645 54.3355C322.833 53.2336 320.745 51.3198 319.585 50.6238C329.386 43.2586 330.314 32.2397 330.314 23.3086V2.48876Z" fill="black"/>
</svg>
