<svg width="236" height="50" viewBox="0 0 236 50" fill="none" xmlns="http://www.w3.org/2000/svg">
<g clip-path="url(#clip0_715_3824)">
<path d="M235.5 30.9999H201.5V48.9999H235.5V30.9999Z" fill="#A50034"/>
<path d="M166.792 37.4494C174.993 37.4494 180.434 32.4789 180.434 24.5556V24.4202C180.434 16.5807 174.993 11.5263 166.792 11.5263H161.208V37.4269L166.792 37.4494ZM147.5 -0.000854492H166.581C184.249 -0.000854492 194.5 10.0757 194.5 24.2171V24.3589C194.5 38.5003 184.109 48.9991 166.301 48.9991H147.5V-0.000854492Z" fill="white"/>
<path d="M101.5 -0.000854492H141.5V11.5456H115.165V18.9661H138.517V30.029H115.165V37.4494H141.5V48.9991H101.5V-0.000854492Z" fill="white"/>
<path d="M60.5 -0.000854492H73.6031V37.4494H96.5V48.9991H60.5V-0.000854492Z" fill="white"/>
<path d="M39.4571 25.1341C39.4571 32.0254 34.5019 37.8869 27.0337 37.8869C19.6427 37.8869 14.5429 31.8873 14.5429 25.0148V24.8767C14.5429 17.9917 19.4981 12.1271 26.8955 12.1271C34.3637 12.1271 39.4571 18.1299 39.4571 25.0148V25.1341ZM27.0691 -0.000854492C11.8854 -0.000854492 0.5 11.1947 0.5 25.0023V25.1404C0.5 38.9543 11.7472 49.9991 26.9277 49.9991C42.1082 49.9991 53.5 38.8068 53.5 25.0023V24.8641C53.5 11.0503 42.2528 -0.000854492 27.0691 -0.000854492Z" fill="white"/>
</g>
<defs>
<clipPath id="clip0_715_3824">
<rect width="235" height="50" fill="white" transform="translate(0.5)"/>
</clipPath>
</defs>
</svg>
