<svg width="135" height="39" viewBox="0 0 135 39" fill="none" xmlns="http://www.w3.org/2000/svg">
<g clip-path="url(#clip0_2275_10196)">
<path d="M134.092 0.547363H114.237V5.50863H121.363V23.3191H126.963V5.50863H134.092V0.547363Z" fill="black"/>
<path d="M28.0444 0.544434H34.3241V17.9414H45.3014V23.3064H28.0444V0.544434Z" fill="black"/>
<path d="M47.5864 0.544434H65.9731V5.90937H53.8661V9.35361H64.6025V14.4939H53.8661V17.9414H65.9731V23.3064H47.5864V0.544434Z" fill="black"/>
<path d="M68.7144 0.544434H77.4552C85.5482 0.544434 90.2457 5.22573 90.2457 11.7919V11.8603C90.2457 18.4265 85.4863 23.3064 77.3282 23.3064H68.7144V0.544434ZM77.5528 17.9414C81.3096 17.9414 83.8 15.6301 83.8 11.9547V11.8928C83.8 8.25002 81.3096 5.90937 77.5528 5.90937H74.9876V17.9544L77.5528 17.9414Z" fill="black"/>
<path d="M13.2404 0.000488281C6.19566 0.000488281 0.912109 5.33939 0.912109 11.9251V11.9902C0.912109 18.5759 6.12078 23.8465 13.1753 23.8465C20.2298 23.8465 25.5068 18.5076 25.5068 11.9251V11.86C25.5068 5.27428 20.2982 0.000488281 13.2437 0.000488281M18.996 11.987C18.996 15.2749 16.6977 18.0681 13.2339 18.0681C9.77011 18.0681 7.43923 15.2098 7.43923 11.9251V11.86C7.43923 8.57528 9.73757 5.77887 13.1688 5.77887C16.6 5.77887 18.996 8.64039 18.996 11.9251V11.987Z" fill="black"/>
<path d="M109.15 14.5454H93.6416V23.3058H109.15V14.5454Z" fill="#A50034"/>
<path d="M24.125 32.6001H25.2286V38.8928H24.125V32.6001Z" fill="black"/>
<path d="M26.562 34.1464H27.6493V34.8821C27.802 34.625 28.0194 34.4124 28.2799 34.2656C28.5403 34.1188 28.8348 34.0429 29.1338 34.0455C30.2016 34.0455 30.8234 34.7649 30.8234 35.8718V38.8928H29.7393V36.1941C29.7393 35.4583 29.3682 35.0351 28.7236 35.0351C28.079 35.0351 27.6526 35.4746 27.6526 36.2136V38.8928H26.5653L26.562 34.1464Z" fill="black"/>
<path d="M32.1481 35.0806H31.5459V34.1723H32.1481V33.8468C32.1299 33.6314 32.1548 33.4145 32.2213 33.2088C32.2878 33.0031 32.3947 32.8128 32.5355 32.6488C32.6792 32.5166 32.8482 32.415 33.0323 32.3501C33.2164 32.2852 33.4118 32.2584 33.6066 32.2712C33.9044 32.268 34.2009 32.3108 34.4856 32.3981V33.3162C34.277 33.2395 34.0567 33.1999 33.8345 33.199C33.421 33.199 33.2062 33.4236 33.2062 33.9184V34.1789H34.466V35.0774H33.2225V38.8894H32.1351L32.1481 35.0806Z" fill="black"/>
<path d="M35.084 32.3818H36.2494V33.4171H35.084V32.3818ZM35.1263 34.1463H36.2136V38.8927H35.1263V34.1463Z" fill="black"/>
<path d="M37.4102 34.1464H38.4975V34.8821C38.6498 34.6254 38.8667 34.4132 39.1266 34.2664C39.3865 34.1196 39.6802 34.0434 39.9787 34.0454C41.0497 34.0454 41.6715 34.7649 41.6715 35.8718V38.8928H40.5809V36.194C40.5809 35.4583 40.2131 35.0351 39.5652 35.0351C38.9174 35.0351 38.4975 35.4746 38.4975 36.2136V38.8928H37.4102V34.1464Z" fill="black"/>
<path d="M42.7754 32.3818H43.9441V33.4171H42.7754V32.3818ZM42.821 34.1463H43.9083V38.8927H42.821V34.1463Z" fill="black"/>
<path d="M45.3287 37.5776V35.0807H44.7134V34.1464H45.3156V32.8442H46.4029V34.1464H47.6823V35.0807H46.4029V37.4084C46.3904 37.4885 46.3968 37.5704 46.4217 37.6476C46.4466 37.7247 46.4892 37.795 46.5463 37.8526C46.6033 37.9103 46.673 37.9537 46.7499 37.9795C46.8268 38.0052 46.9087 38.0125 46.9889 38.0008C47.223 38.0022 47.4541 37.9475 47.6628 37.8413V38.7301C47.3647 38.8963 47.0274 38.9795 46.6862 38.971C45.8951 38.971 45.3287 38.6226 45.3287 37.5776Z" fill="black"/>
<path d="M48.582 32.3818H49.7507V33.4171H48.582V32.3818ZM48.6276 34.1463H49.7149V38.8927H48.6178L48.6276 34.1463Z" fill="black"/>
<path d="M50.6978 38.1442L53.4388 35.0352H50.7954V34.1465H54.8224V34.892L52.0813 38.0009H54.8224V38.8929H50.6978V38.1442Z" fill="black"/>
<path d="M55.3237 36.5358V36.5195C55.3237 35.162 56.2841 34.0454 57.6416 34.0454C59.1521 34.0454 59.9204 35.2336 59.9204 36.5977C59.9204 36.6986 59.9204 36.7963 59.9008 36.9037H56.411C56.4416 37.2412 56.6004 37.5542 56.8547 37.7783C57.1091 38.0023 57.4396 38.1204 57.7783 38.1082C58.0232 38.1122 58.2662 38.0637 58.4908 37.966C58.7154 37.8683 58.9165 37.7237 59.0805 37.5418L59.7316 38.1082C59.4975 38.3982 59.1991 38.6297 58.8601 38.7845C58.5211 38.9393 58.1508 39.0132 57.7783 39.0002C57.4519 39.0121 57.1266 38.9564 56.8228 38.8367C56.5189 38.7169 56.2431 38.5357 56.0126 38.3043C55.7821 38.0729 55.602 37.7963 55.4834 37.492C55.3649 37.1877 55.3105 36.8622 55.3237 36.5358ZM58.8363 36.1842C58.7647 35.4843 58.3513 34.9374 57.6318 34.9374C56.9807 34.9374 56.5022 35.4485 56.4013 36.1842H58.8363Z" fill="black"/>
<path d="M65.2376 36.4089L62.7407 32.6001H64.0429L65.8041 35.3867L67.5848 32.6001H68.8512L66.3542 36.3829V38.8928H65.2376V36.4089Z" fill="black"/>
<path d="M68.2241 36.5567V36.5371C68.2476 35.8816 68.5246 35.2607 68.9967 34.8052C69.4688 34.3497 70.0992 34.0952 70.7552 34.0952C71.4112 34.0952 72.0416 34.3497 72.5137 34.8052C72.9858 35.2607 73.2628 35.8816 73.2863 36.5371C73.2851 36.8678 73.2179 37.1948 73.0887 37.4992C72.9594 37.8035 72.7707 38.079 72.5336 38.3094C72.2965 38.5398 72.0157 38.7206 71.7078 38.8411C71.4 38.9617 71.0711 39.0195 70.7406 39.0113C70.4131 39.0195 70.0872 38.9621 69.7822 38.8425C69.4773 38.7228 69.1993 38.5433 68.9648 38.3146C68.7303 38.0858 68.5439 37.8124 68.4167 37.5105C68.2895 37.2086 68.224 36.8843 68.2241 36.5567ZM72.199 36.5567V36.5371C72.2069 36.3403 72.175 36.1439 72.1054 35.9596C72.0358 35.7753 71.9297 35.6069 71.7936 35.4644C71.6576 35.3219 71.4942 35.2083 71.3133 35.1303C71.1324 35.0523 70.9376 35.0115 70.7406 35.0103C70.5457 35.0096 70.3528 35.0487 70.1736 35.1254C69.9945 35.2021 69.833 35.3147 69.699 35.4563C69.5651 35.5978 69.4616 35.7653 69.395 35.9484C69.3283 36.1315 69.2999 36.3263 69.3114 36.5209C69.3036 36.7171 69.3351 36.9128 69.4041 37.0967C69.4731 37.2805 69.5782 37.4487 69.7132 37.5913C69.8482 37.7339 70.0104 37.848 70.1902 37.9269C70.37 38.0059 70.5638 38.048 70.7601 38.0509C70.9541 38.052 71.1462 38.0136 71.3249 37.9382C71.5036 37.8628 71.6652 37.7518 71.7997 37.6121C71.9343 37.4724 72.039 37.3068 72.1077 37.1254C72.1763 36.9439 72.2074 36.7505 72.199 36.5567Z" fill="black"/>
<path d="M74.1123 37.1643V34.1465H75.1996V36.842C75.1996 37.5777 75.5675 38.0009 76.2153 38.0009C76.8631 38.0009 77.2863 37.5614 77.2863 36.8257V34.1465H78.3737V38.8929H77.2863V38.1539C77.1335 38.4108 76.916 38.6232 76.6556 38.77C76.3951 38.9168 76.1008 38.9928 75.8019 38.9906C74.7308 38.9906 74.1123 38.2711 74.1123 37.1643Z" fill="black"/>
<path d="M79.5137 34.1463H80.601V35.2141C80.716 34.8633 80.9429 34.56 81.247 34.3507C81.551 34.1413 81.9153 34.0375 82.284 34.0552V35.2043H82.2222C81.2683 35.2043 80.5945 35.8261 80.5945 37.086V38.8927H79.5137V34.1463Z" fill="black"/>
<path d="M85.1147 32.5996H86.3095L87.8102 37.2646L89.3566 32.5801H90.2876L91.8339 37.2646L93.3347 32.5996H94.4936L92.3027 38.9347H91.3489L89.8026 34.4161L88.2562 38.9347H87.3024L85.1147 32.5996Z" fill="black"/>
<path d="M94.4351 36.5567V36.5371C94.4586 35.8816 94.7355 35.2607 95.2076 34.8052C95.6797 34.3497 96.3102 34.0952 96.9662 34.0952C97.6222 34.0952 98.2526 34.3497 98.7247 34.8052C99.1968 35.2607 99.4737 35.8816 99.4972 36.5371C99.496 36.8678 99.4289 37.1948 99.2996 37.4992C99.1703 37.8035 98.9816 38.079 98.7445 38.3094C98.5074 38.5398 98.2267 38.7206 97.9188 38.8411C97.6109 38.9617 97.282 39.0195 96.9515 39.0113C96.624 39.0195 96.2981 38.9621 95.9932 38.8425C95.6882 38.7228 95.4102 38.5433 95.1757 38.3146C94.9412 38.0858 94.7548 37.8124 94.6276 37.5105C94.5004 37.2086 94.435 36.8843 94.4351 36.5567ZM98.4262 36.5567V36.5371C98.4341 36.3403 98.4022 36.1439 98.3326 35.9596C98.263 35.7753 98.1569 35.6069 98.0209 35.4644C97.8848 35.3219 97.7214 35.2083 97.5405 35.1303C97.3596 35.0523 97.1648 35.0115 96.9678 35.0103C96.7729 35.0096 96.58 35.0487 96.4008 35.1254C96.2217 35.2021 96.0602 35.3147 95.9262 35.4563C95.7923 35.5978 95.6888 35.7653 95.6222 35.9484C95.5555 36.1315 95.5271 36.3263 95.5387 36.5209C95.5308 36.7171 95.5623 36.9128 95.6313 37.0967C95.7003 37.2805 95.8054 37.4487 95.9404 37.5913C96.0754 37.7339 96.2376 37.848 96.4174 37.9269C96.5972 38.0059 96.791 38.048 96.9873 38.0509C97.1813 38.052 97.3734 38.0136 97.5522 37.9382C97.7309 37.8628 97.8924 37.7518 98.0269 37.6121C98.1615 37.4724 98.2663 37.3068 98.3349 37.1254C98.4035 36.9439 98.4346 36.7505 98.4262 36.5567Z" fill="black"/>
<path d="M100.381 34.1463H101.469V35.2141C101.584 34.8633 101.811 34.56 102.115 34.3507C102.419 34.1413 102.783 34.0375 103.152 34.0552V35.2043H103.087C102.136 35.2043 101.459 35.8261 101.459 37.086V38.8927H100.381V34.1463Z" fill="black"/>
<path d="M103.93 32.3237H105.017V38.8867H103.93V32.3237Z" fill="black"/>
<path d="M105.97 36.5265C105.97 34.9541 107.038 34.0621 108.17 34.0621C108.489 34.0581 108.805 34.1322 109.088 34.278C109.372 34.4239 109.616 34.637 109.798 34.8988V32.3237H110.885V38.8867H109.788V38.0956C109.615 38.3704 109.375 38.5963 109.09 38.7519C108.805 38.9075 108.485 38.9875 108.161 38.9843C107.057 38.9908 105.97 38.1021 105.97 36.5265ZM109.808 36.5265C109.821 36.3355 109.795 36.1439 109.732 35.9631C109.669 35.7823 109.57 35.616 109.442 35.4741C109.313 35.3322 109.158 35.2177 108.984 35.1373C108.81 35.0569 108.622 35.0123 108.431 35.0062C107.685 35.0062 107.067 35.5824 107.067 36.5265C107.067 37.4445 107.695 38.0468 108.431 38.0468C108.623 38.0415 108.812 37.9975 108.987 37.9176C109.162 37.8376 109.319 37.7233 109.448 37.5815C109.578 37.4396 109.678 37.2731 109.742 37.0919C109.806 36.9106 109.833 36.7183 109.821 36.5265H109.808Z" fill="black"/>
</g>
<defs>
<clipPath id="clip0_2275_10196">
<rect width="133.176" height="39" fill="white" transform="translate(0.912109)"/>
</clipPath>
</defs>
</svg>
