<svg width="165" height="42" viewBox="0 0 165 42" fill="none" xmlns="http://www.w3.org/2000/svg">
<path d="M55.5418 36.6368C55.5259 36.5732 55.4994 36.4885 55.4623 36.3826C55.4306 36.2767 55.3935 36.1708 55.3512 36.0649C55.3141 35.9537 55.277 35.8584 55.24 35.779C55.3459 35.7525 55.4465 35.6969 55.5418 35.6122C55.6371 35.5222 55.7483 35.4057 55.8753 35.2628C55.9389 35.1886 56.0315 35.0722 56.1533 34.9133C56.2804 34.7492 56.4181 34.5559 56.5663 34.3335C56.7199 34.1059 56.8734 33.8623 57.027 33.6028C57.1805 33.3381 57.3208 33.0707 57.4479 32.8007L58.2501 33.301C57.9588 33.8199 57.6306 34.3309 57.2652 34.8339C56.8999 35.3369 56.5266 35.779 56.1454 36.1602V36.1841C56.1454 36.1841 56.1136 36.1999 56.0501 36.2317C55.9918 36.2635 55.923 36.3032 55.8436 36.3509C55.7641 36.3932 55.6927 36.4409 55.6291 36.4938C55.5709 36.5468 55.5418 36.5944 55.5418 36.6368ZM55.5418 36.6368L55.4782 35.8823L55.8912 35.5963L58.1071 35.2231C58.0912 35.3501 58.0806 35.4931 58.0753 35.6519C58.0753 35.8055 58.078 35.9326 58.0833 36.0332C57.5856 36.1338 57.1805 36.2158 56.8681 36.2794C56.561 36.3429 56.3201 36.3959 56.1454 36.4382C55.9706 36.4753 55.8383 36.5097 55.7483 36.5415C55.6635 36.5732 55.5947 36.605 55.5418 36.6368ZM55.4782 34.6989C55.4676 34.6353 55.4438 34.548 55.4067 34.4368C55.3697 34.3256 55.33 34.2117 55.2876 34.0953C55.2453 33.9788 55.2029 33.8782 55.1605 33.7935C55.2453 33.7723 55.3247 33.722 55.3988 33.6426C55.4782 33.5578 55.5603 33.4519 55.645 33.3249C55.6874 33.2666 55.7483 33.166 55.8277 33.0231C55.9124 32.8801 56.0024 32.7133 56.0977 32.5227C56.1983 32.3268 56.2963 32.1177 56.3916 31.8953C56.4869 31.6676 56.5716 31.4399 56.6457 31.2122L57.5591 31.6491C57.432 31.9456 57.2838 32.2474 57.1143 32.5545C56.9449 32.8616 56.7649 33.1581 56.5743 33.444C56.3836 33.7246 56.193 33.9788 56.0024 34.2065V34.2303C56.0024 34.2303 55.9759 34.2462 55.923 34.2779C55.87 34.3097 55.8092 34.3521 55.7403 34.405C55.6715 34.4527 55.6106 34.503 55.5576 34.5559C55.5047 34.6089 55.4782 34.6565 55.4782 34.6989ZM55.4782 34.6989L55.4544 34.0079L55.8515 33.7458L57.1699 33.6426C57.1487 33.7643 57.1276 33.902 57.1064 34.0556C57.0905 34.2038 57.0799 34.3282 57.0746 34.4288C56.7834 34.4606 56.5425 34.4897 56.3519 34.5162C56.1613 34.5374 56.0077 34.5586 55.8912 34.5797C55.78 34.6009 55.6927 34.6221 55.6291 34.6433C55.5709 34.6592 55.5206 34.6777 55.4782 34.6989ZM55.2717 37.4389C55.5047 37.3913 55.7721 37.3383 56.0739 37.2801C56.3757 37.2166 56.696 37.1477 57.0349 37.0736C57.3738 36.9995 57.7126 36.9253 58.0515 36.8512L58.1468 37.6772C57.6809 37.799 57.2096 37.9181 56.7331 38.0346C56.2619 38.1564 55.833 38.2702 55.4465 38.3761L55.2717 37.4389ZM58.9807 33.8014H61.5778V34.6671H58.9807V33.8014ZM58.8854 37.4786H61.4984V38.3205H58.8854V37.4786ZM58.5201 35.3104H61.9591V38.6938H60.9822V36.1444H59.4493V38.7017H58.5201V35.3104ZM60.593 31.5061C60.7413 31.8291 60.9266 32.1441 61.149 32.4512C61.3766 32.7583 61.6308 33.0416 61.9114 33.301C62.192 33.5552 62.4833 33.7643 62.7851 33.9285C62.7162 33.992 62.6368 34.0688 62.5468 34.1588C62.4621 34.2488 62.38 34.3441 62.3006 34.4447C62.2265 34.54 62.1629 34.63 62.11 34.7148C61.7976 34.503 61.5011 34.2435 61.2204 33.9364C60.9398 33.624 60.683 33.2825 60.45 32.9119C60.2224 32.5359 60.0291 32.1494 59.8703 31.7523L60.593 31.5061ZM59.9179 31.2122L60.8154 31.4664C60.5824 32.1547 60.2647 32.7848 59.8623 33.3566C59.4652 33.9232 58.994 34.4024 58.4486 34.7942C58.4063 34.7253 58.3454 34.6459 58.2659 34.5559C58.1865 34.4659 58.1018 34.3785 58.0118 34.2938C57.9271 34.2038 57.8503 34.135 57.7815 34.0873C58.115 33.8702 58.4195 33.6108 58.6948 33.309C58.9702 33.0019 59.2111 32.671 59.4176 32.3162C59.6294 31.9562 59.7961 31.5882 59.9179 31.2122ZM63.3092 33.1501H70.5525V34.0635H63.3092V33.1501ZM64.3894 31.4664H65.3822V37.3357H70.346V38.257H64.3894V31.4664ZM66.4544 31.2996H67.3995V35.5646H68.5035V31.3711H69.4962V36.4382H66.4544V31.2996ZM72.9987 33.5552V34.127H76.7554V33.5552H72.9987ZM72.9987 32.2686V32.8404H76.7554V32.2686H72.9987ZM72.0536 31.4982H77.7482V34.8974H72.0536V31.4982ZM75.9691 34.3891C76.1439 34.6274 76.3662 34.8498 76.6363 35.0563C76.9116 35.2628 77.2187 35.4454 77.5576 35.6043C77.9017 35.7578 78.2591 35.8796 78.6298 35.9696C78.5609 36.0332 78.4868 36.1126 78.4074 36.2079C78.328 36.3032 78.2512 36.4038 78.1771 36.5097C78.1029 36.6103 78.042 36.703 77.9944 36.7877C77.6079 36.6553 77.2372 36.4885 76.8825 36.2873C76.533 36.0808 76.21 35.8425 75.9135 35.5725C75.6223 35.2972 75.3735 35.0007 75.167 34.683L75.9691 34.3891ZM73.8009 34.3891L74.6348 34.7148C74.423 35.0166 74.1662 35.3025 73.8644 35.5725C73.5679 35.8425 73.2423 36.0835 72.8875 36.2953C72.5381 36.507 72.1728 36.6791 71.7915 36.8115C71.7492 36.7321 71.6909 36.6447 71.6168 36.5494C71.5427 36.4541 71.4659 36.3588 71.3865 36.2635C71.3071 36.1682 71.2329 36.0914 71.1641 36.0332C71.5188 35.9273 71.863 35.7922 72.1966 35.6281C72.5354 35.4587 72.8425 35.2681 73.1179 35.0563C73.3985 34.8445 73.6262 34.6221 73.8009 34.3891ZM73.237 35.8425H74.2139V36.3906C74.2139 36.5812 74.1927 36.785 74.1504 37.0021C74.108 37.2139 74.0259 37.4257 73.9042 37.6375C73.7824 37.8493 73.5997 38.0505 73.3561 38.2411C73.1179 38.4317 72.7975 38.5985 72.3951 38.7415C72.3581 38.662 72.2998 38.5747 72.2204 38.4794C72.1463 38.3841 72.0669 38.2888 71.9821 38.1934C71.8974 38.1034 71.818 38.0267 71.7439 37.9631C72.0774 37.8572 72.3422 37.7381 72.5381 37.6057C72.7393 37.4733 72.8876 37.3357 72.9829 37.1927C73.0835 37.0498 73.1496 36.9068 73.1814 36.7638C73.2185 36.6156 73.237 36.4779 73.237 36.3509V35.8425ZM74.3886 31.8953H75.3496V34.5083H74.3886V31.8953ZM75.6514 35.8584H76.6442V38.662H75.6514V35.8584ZM79.2095 34H86.4687V34.9371H79.2095V34ZM79.6861 31.7285H86.0319V32.6577H79.6861V31.7285ZM82.8391 34.7704H83.8478V37.2086C83.8478 37.3622 83.8716 37.4601 83.9193 37.5025C83.9669 37.5395 84.0755 37.5581 84.2449 37.5581C84.282 37.5581 84.3429 37.5581 84.4276 37.5581C84.5176 37.5581 84.6129 37.5581 84.7135 37.5581C84.8194 37.5581 84.9174 37.5581 85.0074 37.5581C85.0974 37.5581 85.1662 37.5581 85.2139 37.5581C85.3198 37.5581 85.4018 37.5316 85.4601 37.4786C85.5183 37.4204 85.558 37.3066 85.5792 37.1371C85.6004 36.9677 85.6189 36.7135 85.6348 36.3747C85.7089 36.4276 85.7989 36.4806 85.9048 36.5335C86.0107 36.5865 86.1219 36.6341 86.2384 36.6765C86.3602 36.7188 86.4634 36.7506 86.5482 36.7718C86.5111 37.2218 86.4502 37.5713 86.3655 37.8202C86.2861 38.069 86.159 38.2437 85.9843 38.3443C85.8148 38.4449 85.5845 38.4952 85.2933 38.4952C85.2562 38.4952 85.1953 38.4952 85.1106 38.4952C85.0312 38.4952 84.9412 38.4952 84.8406 38.4952C84.7453 38.4952 84.6473 38.4952 84.5467 38.4952C84.4514 38.4952 84.364 38.4952 84.2846 38.4952C84.2052 38.4952 84.147 38.4952 84.1099 38.4952C83.771 38.4952 83.5089 38.4555 83.3236 38.3761C83.1436 38.2967 83.0165 38.1643 82.9424 37.979C82.8736 37.7937 82.8391 37.5422 82.8391 37.2245V34.7704ZM82.1958 32.1097H83.1727C83.1621 32.5227 83.1436 32.9383 83.1171 33.3566C83.0906 33.7749 83.0403 34.1906 82.9662 34.6036C82.8974 35.0166 82.7888 35.4216 82.6406 35.8187C82.4923 36.2105 82.2938 36.5812 82.0449 36.9306C81.7961 37.2801 81.481 37.6031 81.0998 37.8996C80.7239 38.1961 80.2632 38.4555 79.7179 38.6779C79.649 38.5561 79.5564 38.4158 79.4399 38.257C79.3234 38.1034 79.2016 37.979 79.0745 37.8837C79.5881 37.6878 80.0197 37.4601 80.3691 37.2007C80.7239 36.9412 81.0124 36.6579 81.2348 36.3509C81.4625 36.0438 81.6399 35.7181 81.7669 35.374C81.894 35.0245 81.984 34.6697 82.037 34.3097C82.0952 33.9444 82.1323 33.5764 82.1482 33.2057C82.1693 32.8298 82.1852 32.4645 82.1958 32.1097ZM87.398 31.5458H89.3041V32.3956H88.224V38.662H87.398V31.5458ZM89.1373 31.5458H89.2882L89.4232 31.5061L90.0507 31.8635C89.9448 32.1971 89.8309 32.5518 89.7092 32.9278C89.5927 33.2984 89.4762 33.6373 89.3597 33.9444C89.598 34.262 89.7542 34.5612 89.8283 34.8418C89.9024 35.1172 89.9395 35.3713 89.9395 35.6043C89.9395 35.8637 89.9104 36.0808 89.8521 36.2555C89.7992 36.425 89.7092 36.56 89.5821 36.6606C89.5185 36.7083 89.4471 36.7453 89.3676 36.7718C89.2935 36.7983 89.2141 36.8194 89.1294 36.8353C89.0552 36.8459 88.9732 36.8512 88.8832 36.8512C88.7931 36.8512 88.7005 36.8512 88.6052 36.8512C88.6052 36.74 88.5867 36.605 88.5496 36.4462C88.5125 36.2873 88.4622 36.1496 88.3987 36.0332C88.4728 36.0385 88.5364 36.0438 88.5893 36.049C88.6475 36.049 88.7005 36.0464 88.7481 36.0411C88.8329 36.0411 88.9043 36.0199 88.9626 35.9776C89.0155 35.9458 89.0499 35.8876 89.0658 35.8028C89.087 35.7181 89.0976 35.6175 89.0976 35.501C89.0976 35.3104 89.0632 35.0907 88.9944 34.8418C88.9255 34.593 88.7773 34.3282 88.5496 34.0476C88.6078 33.8676 88.6634 33.6743 88.7164 33.4678C88.7746 33.2613 88.8302 33.0548 88.8832 32.8483C88.9361 32.6418 88.9838 32.4486 89.0261 32.2686C89.0738 32.0832 89.1108 31.9297 89.1373 31.8079V31.5458ZM90.7258 31.5538H93.8947V35.2151H90.7258V34.3891H92.9655V32.3718H90.7258V31.5538ZM90.7893 32.9834H93.4896V33.7537H90.7893V32.9834ZM92.3857 34.7306C92.4916 35.1966 92.6372 35.6334 92.8225 36.0411C93.0078 36.4435 93.2408 36.8009 93.5214 37.1133C93.8073 37.4204 94.1436 37.6613 94.5301 37.836C94.4612 37.8996 94.3845 37.979 94.2997 38.0743C94.2203 38.1696 94.1436 38.2676 94.0694 38.3682C94.0006 38.4741 93.9423 38.572 93.8947 38.662C93.4711 38.4238 93.1111 38.122 92.8146 37.7566C92.5233 37.386 92.2798 36.9571 92.0839 36.47C91.8933 35.9776 91.7344 35.4454 91.6073 34.8736L92.3857 34.7306ZM93.7359 35.2866L94.3553 35.9617C94.2124 36.0729 94.0588 36.1894 93.8947 36.3111C93.7359 36.4329 93.577 36.5468 93.4182 36.6527C93.2646 36.7533 93.119 36.8433 92.9813 36.9227L92.4889 36.327C92.6107 36.2423 92.7484 36.1417 92.9019 36.0252C93.0608 35.9087 93.2117 35.787 93.3546 35.6599C93.5029 35.5275 93.63 35.4031 93.7359 35.2866ZM90.3128 38.7097L90.2333 37.8837L90.6225 37.5819L92.3221 37.2166C92.3221 37.3489 92.3248 37.4998 92.3301 37.6693C92.3354 37.8387 92.346 37.9764 92.3618 38.0823C91.9753 38.1776 91.6576 38.2596 91.4088 38.3285C91.1599 38.3973 90.964 38.4529 90.8211 38.4952C90.6781 38.5429 90.5696 38.5826 90.4954 38.6144C90.4213 38.6514 90.3604 38.6832 90.3128 38.7097ZM90.3128 38.7097C90.2916 38.6409 90.2572 38.5588 90.2095 38.4635C90.1619 38.3682 90.1116 38.2729 90.0586 38.1776C90.0057 38.0875 89.9554 38.0161 89.9077 37.9631C89.9924 37.9155 90.0745 37.836 90.1539 37.7249C90.2386 37.6084 90.281 37.4575 90.281 37.2721V31.5538H91.2102V37.8519C91.2102 37.8519 91.1785 37.8705 91.1149 37.9075C91.0567 37.9446 90.9826 37.9922 90.8925 38.0505C90.8078 38.114 90.7205 38.1829 90.6304 38.257C90.5404 38.3364 90.4637 38.4158 90.4001 38.4952C90.3419 38.5747 90.3128 38.6461 90.3128 38.7097ZM100.383 32.0303H101.384V37.4866C101.384 37.7725 101.347 37.9922 101.273 38.1458C101.199 38.3046 101.064 38.4238 100.868 38.5032C100.677 38.5826 100.434 38.6303 100.137 38.6461C99.8408 38.6673 99.4887 38.6779 99.081 38.6779C99.0598 38.5826 99.028 38.4714 98.9857 38.3443C98.9433 38.2226 98.893 38.1008 98.8347 37.979C98.7818 37.8572 98.7289 37.754 98.6759 37.6693C98.8718 37.6746 99.0677 37.6798 99.2636 37.6851C99.4648 37.6904 99.6449 37.6931 99.8037 37.6931C99.9625 37.6931 100.074 37.6931 100.137 37.6931C100.227 37.6931 100.291 37.6772 100.328 37.6454C100.365 37.6137 100.383 37.5554 100.383 37.4707V32.0303ZM95.8485 33.6187H96.7698V37.3198H95.8485V33.6187ZM96.2376 33.6187H99.2319V36.7083H96.2376V35.7949H98.2947V34.5241H96.2376V33.6187ZM95.1099 31.7603H102.305V32.7292H95.1099V31.7603ZM103.386 34.1032H105.903V34.8815H104.267V38.6859H103.386V34.1032ZM105.451 34.1032H106.396V37.7249C106.396 37.9314 106.372 38.0955 106.324 38.2173C106.277 38.3443 106.184 38.4423 106.046 38.5111C105.914 38.5853 105.755 38.6303 105.57 38.6461C105.384 38.662 105.173 38.67 104.934 38.67C104.913 38.5429 104.871 38.3973 104.807 38.2332C104.749 38.0743 104.688 37.9393 104.625 37.8281C104.768 37.8334 104.908 37.836 105.046 37.836C105.183 37.836 105.276 37.8334 105.324 37.8281C105.376 37.8281 105.411 37.8202 105.427 37.8043C105.443 37.7884 105.451 37.7566 105.451 37.709V34.1032ZM103.783 35.3025H105.991V36.0093H103.783V35.3025ZM103.783 36.47H105.991V37.1768H103.783V36.47ZM107.015 31.2599H107.952V33.6505C107.952 33.7882 107.974 33.8755 108.016 33.9126C108.058 33.9497 108.154 33.9682 108.302 33.9682C108.334 33.9682 108.387 33.9682 108.461 33.9682C108.54 33.9682 108.627 33.9682 108.723 33.9682C108.818 33.9682 108.905 33.9682 108.985 33.9682C109.07 33.9682 109.133 33.9682 109.176 33.9682C109.26 33.9682 109.324 33.9497 109.366 33.9126C109.414 33.8702 109.448 33.7908 109.469 33.6743C109.491 33.5525 109.506 33.3752 109.517 33.1422C109.612 33.2163 109.742 33.2878 109.906 33.3566C110.076 33.4202 110.224 33.4652 110.351 33.4917C110.319 33.8358 110.264 34.1032 110.184 34.2938C110.105 34.4791 109.991 34.6115 109.843 34.6909C109.7 34.7651 109.506 34.8021 109.263 34.8021C109.226 34.8021 109.17 34.8021 109.096 34.8021C109.022 34.8021 108.94 34.8021 108.85 34.8021C108.76 34.8021 108.67 34.8021 108.58 34.8021C108.49 34.8021 108.408 34.8021 108.334 34.8021C108.265 34.8021 108.209 34.8021 108.167 34.8021C107.86 34.8021 107.621 34.7677 107.452 34.6989C107.288 34.63 107.174 34.5109 107.111 34.3415C107.047 34.172 107.015 33.9444 107.015 33.6584V31.2599ZM109.406 31.7285L110.009 32.4274C109.771 32.5386 109.514 32.6471 109.239 32.753C108.969 32.8536 108.694 32.9489 108.413 33.0389C108.132 33.129 107.86 33.2084 107.595 33.2772C107.574 33.1872 107.534 33.0787 107.476 32.9516C107.423 32.8245 107.373 32.716 107.325 32.626C107.569 32.5465 107.817 32.4592 108.072 32.3639C108.326 32.2633 108.567 32.1574 108.794 32.0462C109.027 31.935 109.231 31.8291 109.406 31.7285ZM107.023 34.9768H107.968V37.4786C107.968 37.6216 107.989 37.7116 108.032 37.7487C108.079 37.7857 108.177 37.8043 108.326 37.8043C108.363 37.8043 108.421 37.8043 108.5 37.8043C108.58 37.8043 108.667 37.8043 108.763 37.8043C108.858 37.8043 108.948 37.8043 109.033 37.8043C109.117 37.8043 109.181 37.8043 109.223 37.8043C109.318 37.8043 109.39 37.7804 109.438 37.7328C109.485 37.6851 109.52 37.5925 109.541 37.4548C109.562 37.3172 109.578 37.1133 109.589 36.8433C109.689 36.9174 109.821 36.9889 109.986 37.0577C110.15 37.1212 110.298 37.1689 110.43 37.2007C110.399 37.5713 110.343 37.8599 110.264 38.0664C110.184 38.2782 110.07 38.4264 109.922 38.5111C109.774 38.5958 109.57 38.6382 109.311 38.6382C109.273 38.6382 109.215 38.6382 109.136 38.6382C109.062 38.6382 108.98 38.6382 108.89 38.6382C108.8 38.6382 108.707 38.6382 108.612 38.6382C108.516 38.6382 108.432 38.6382 108.357 38.6382C108.283 38.6382 108.228 38.6382 108.191 38.6382C107.884 38.6382 107.645 38.6011 107.476 38.527C107.306 38.4582 107.187 38.3391 107.118 38.1696C107.055 38.0055 107.023 37.7778 107.023 37.4866V34.9768ZM109.461 35.3025L110.089 36.0014C109.851 36.1338 109.589 36.2582 109.303 36.3747C109.017 36.4859 108.728 36.5918 108.437 36.6924C108.146 36.793 107.86 36.883 107.579 36.9624C107.558 36.8724 107.518 36.7612 107.46 36.6288C107.407 36.4965 107.354 36.3853 107.301 36.2953C107.561 36.2105 107.823 36.1126 108.087 36.0014C108.352 35.8902 108.604 35.7764 108.842 35.6599C109.08 35.5381 109.287 35.419 109.461 35.3025ZM105.085 32.0223L105.895 31.7205C106.017 31.8953 106.139 32.0885 106.261 32.3003C106.382 32.5121 106.491 32.7186 106.586 32.9198C106.687 33.121 106.758 33.3063 106.801 33.4758L105.935 33.8252C105.898 33.6611 105.834 33.4758 105.744 33.2693C105.654 33.0575 105.551 32.843 105.435 32.626C105.324 32.4089 105.207 32.2077 105.085 32.0223ZM103.362 33.722C103.346 33.6584 103.319 33.5737 103.282 33.4678C103.245 33.3566 103.206 33.2454 103.163 33.1343C103.121 33.0178 103.081 32.9172 103.044 32.8325C103.108 32.8113 103.171 32.7742 103.235 32.7213C103.298 32.6683 103.362 32.5995 103.425 32.5148C103.473 32.4618 103.539 32.3692 103.624 32.2368C103.709 32.1044 103.799 31.9482 103.894 31.7682C103.995 31.5882 104.079 31.4029 104.148 31.2122L105.165 31.4743C105.054 31.6861 104.926 31.9006 104.783 32.1177C104.646 32.3347 104.5 32.5412 104.347 32.7371C104.198 32.9278 104.055 33.0945 103.918 33.2375V33.2534C103.918 33.2534 103.889 33.2693 103.83 33.301C103.777 33.3328 103.714 33.3725 103.64 33.4202C103.566 33.4678 103.499 33.5208 103.441 33.579C103.388 33.632 103.362 33.6796 103.362 33.722ZM103.362 33.722L103.338 33.0787L103.759 32.8245L106.221 32.6577C106.195 32.7689 106.171 32.896 106.15 33.0389C106.134 33.1819 106.126 33.2984 106.126 33.3884C105.686 33.4255 105.313 33.4599 105.006 33.4917C104.704 33.5181 104.455 33.542 104.259 33.5631C104.063 33.5843 103.907 33.6055 103.791 33.6267C103.679 33.6426 103.589 33.6584 103.521 33.6743C103.457 33.6902 103.404 33.7061 103.362 33.722Z" fill="black"/>
<path d="M27.041 0.541992H33.2999V17.8812H44.2407V23.2283H27.041V0.541992Z" fill="black"/>
<path d="M46.5186 0.541992H64.8441V5.8891H52.7774V9.32189H63.4781V14.4451H52.7774V17.8812H64.8441V23.2283H46.5186V0.541992Z" fill="black"/>
<path d="M67.5786 0.541992H76.2904C84.3565 0.541992 89.0384 5.20773 89.0384 11.7521V11.8202C89.0384 18.3646 84.2948 23.2283 76.1638 23.2283H67.5786V0.541992ZM76.3877 17.8812C80.132 17.8812 82.6141 15.5775 82.6141 11.9143V11.8527C82.6141 8.22196 80.132 5.88909 76.3877 5.88909H73.831V17.8941L76.3877 17.8812Z" fill="black"/>
<path d="M12.2873 0C5.26599 0 0 5.32115 0 11.885V11.9499C0 18.5137 5.19136 23.7667 12.2224 23.7667C19.2535 23.7667 24.513 18.4456 24.513 11.885V11.8201C24.513 5.25627 19.3216 0 12.2906 0M18.0238 11.9466C18.0238 15.2237 15.7331 18.0076 12.2808 18.0076C8.82856 18.0076 6.50543 15.1588 6.50543 11.885V11.8201C6.50543 8.54629 8.79612 5.75917 12.2159 5.75917C15.6357 5.75917 18.0238 8.61118 18.0238 11.885V11.9466Z" fill="black"/>
<path d="M107.88 14.4966H92.4224V23.2278H107.88V14.4966Z" fill="#A50034"/>
<path d="M119.472 4.51428H136.429V6.41893H119.472V4.51428ZM121.509 11.2335H130.265V13.1381H121.509V11.2335ZM130.186 13.482H134.048V15.2808H130.186V13.482ZM126.694 1.84248H129.075V10.6779H126.694V1.84248ZM126.191 5.4666L127.964 6.18084C127.382 6.99208 126.659 7.77687 125.794 8.5352C124.948 9.2759 124.031 9.94605 123.043 10.5457C122.073 11.1453 121.103 11.6303 120.133 12.0006C119.975 11.7361 119.745 11.4274 119.446 11.0747C119.163 10.722 118.899 10.4398 118.652 10.2282C119.604 9.92842 120.557 9.53161 121.509 9.03782C122.461 8.54402 123.343 7.9885 124.154 7.37125C124.983 6.754 125.662 6.11912 126.191 5.4666ZM129.577 5.54596C130.089 6.18084 130.741 6.78927 131.535 7.37125C132.328 7.95322 133.193 8.47348 134.127 8.932C135.062 9.39053 135.997 9.74324 136.931 9.99014C136.684 10.2194 136.411 10.5192 136.111 10.8896C135.829 11.2423 135.609 11.5597 135.45 11.8419C134.498 11.4892 133.545 11.0218 132.593 10.4398C131.658 9.84024 130.785 9.1789 129.974 8.45584C129.163 7.73278 128.484 6.97445 127.937 6.18084L129.577 5.54596ZM133.36 13.482H135.688C135.688 13.482 135.679 13.5878 135.662 13.7994C135.644 14.0111 135.626 14.1962 135.609 14.355C135.485 15.8716 135.327 17.0091 135.133 17.7674C134.956 18.5258 134.718 19.0549 134.418 19.3547C134.171 19.5839 133.907 19.7515 133.625 19.8573C133.343 19.9454 133.016 19.9984 132.646 20.016C132.328 20.0336 131.879 20.0424 131.297 20.0424C130.715 20.0424 130.089 20.0248 129.419 19.9895C129.401 19.7074 129.339 19.3899 129.233 19.0372C129.128 18.6845 128.995 18.3759 128.837 18.1113C129.436 18.1466 130.001 18.1731 130.53 18.1907C131.059 18.2083 131.429 18.2172 131.641 18.2172C131.852 18.2172 132.02 18.2083 132.143 18.1907C132.284 18.1554 132.408 18.0937 132.514 18.0055C132.708 17.8468 132.866 17.45 132.99 16.8151C133.131 16.1626 133.254 15.1486 133.36 13.773V13.482ZM133.651 0.0436471L135.212 1.71021C134.26 1.92184 133.193 2.10701 132.011 2.26574C130.847 2.40682 129.621 2.53909 128.334 2.66254C127.064 2.76835 125.777 2.85653 124.472 2.92707C123.184 2.99761 121.941 3.0417 120.742 3.05934C120.707 2.83008 120.636 2.54791 120.53 2.21283C120.424 1.86012 120.31 1.56031 120.186 1.31341C121.386 1.27814 122.602 1.22523 123.837 1.15469C125.089 1.08415 126.315 0.995971 127.514 0.890157C128.713 0.784344 129.833 0.660894 130.874 0.519809C131.932 0.378724 132.858 0.220003 133.651 0.0436471ZM124.551 11.7625H126.853C126.747 12.803 126.579 13.7642 126.35 14.6459C126.138 15.5277 125.803 16.3301 125.345 17.0532C124.904 17.7763 124.304 18.42 123.546 18.9843C122.788 19.531 121.818 19.9984 120.636 20.3863C120.513 20.1042 120.319 19.7779 120.054 19.4076C119.807 19.0372 119.56 18.7462 119.313 18.5346C120.336 18.2348 121.174 17.8733 121.826 17.45C122.479 17.0091 122.99 16.5065 123.361 15.9422C123.731 15.3778 123.996 14.7518 124.154 14.064C124.331 13.3585 124.463 12.5914 124.551 11.7625ZM112.568 1.89539L114.472 0.493356C115.001 0.898975 115.531 1.3575 116.06 1.86893C116.606 2.36273 117.109 2.86535 117.567 3.37678C118.026 3.87058 118.396 4.3291 118.678 4.75236L116.642 6.31311C116.395 5.88986 116.042 5.41369 115.583 4.88463C115.143 4.35556 114.658 3.83531 114.128 3.32387C113.599 2.7948 113.079 2.31864 112.568 1.89539ZM118.044 9.83142V19.9895H115.636V12.1593H112.515V9.83142H118.044ZM129.683 11.2335H131.826C131.685 11.9212 131.526 12.6355 131.35 13.3762C131.173 14.1169 131.006 14.7518 130.847 15.2808H128.704C128.898 14.7165 129.075 14.0728 129.233 13.3497C129.41 12.609 129.56 11.9036 129.683 11.2335ZM117.806 19.0108C118.229 19.0108 118.634 19.1607 119.022 19.4605C119.41 19.7426 119.939 20.0865 120.61 20.4922C121.438 20.986 122.408 21.3034 123.519 21.4445C124.648 21.5679 125.9 21.6297 127.276 21.6297C128.228 21.6297 129.277 21.612 130.424 21.5767C131.57 21.5238 132.699 21.4621 133.81 21.3916C134.939 21.3034 135.935 21.2064 136.799 21.1006C136.711 21.3122 136.614 21.5856 136.508 21.9206C136.402 22.2381 136.314 22.5555 136.244 22.873C136.173 23.1904 136.129 23.4638 136.111 23.693C135.6 23.7283 134.974 23.7636 134.233 23.7988C133.51 23.8341 132.725 23.8606 131.879 23.8782C131.05 23.9135 130.23 23.9399 129.419 23.9576C128.607 23.9752 127.884 23.984 127.249 23.984C125.697 23.984 124.357 23.887 123.228 23.693C122.1 23.499 121.103 23.1551 120.239 22.6613C119.71 22.3439 119.243 22.0353 118.837 21.7355C118.432 21.418 118.079 21.2593 117.779 21.2593C117.444 21.2593 117.065 21.4004 116.642 21.6826C116.236 21.9647 115.795 22.3351 115.319 22.7936C114.843 23.2698 114.367 23.79 113.89 24.3544L112.224 22.1587C112.859 21.5767 113.502 21.0477 114.155 20.5715C114.825 20.0954 115.469 19.7162 116.086 19.434C116.721 19.1518 117.294 19.0108 117.806 19.0108ZM140.952 1.2076H148.544V17.2119H140.952V14.9105H146.217V3.50905H140.952V1.2076ZM140.979 7.97968H147.169V10.2282H140.979V7.97968ZM152.221 0.784343H160.766V3.08579H152.221V0.784343ZM152.221 7.13317H160.766V9.40816H152.221V7.13317ZM152.089 13.5349H160.739V15.8099H152.089V13.5349ZM139.603 1.2076H141.931V19.5927H139.603V1.2076ZM159.84 0.784343H162.327V21.1799C162.327 21.8854 162.23 22.4321 162.036 22.8201C161.859 23.2257 161.542 23.5255 161.083 23.7195C160.607 23.9311 159.99 24.0634 159.232 24.1163C158.473 24.1692 157.53 24.1956 156.401 24.1956C156.366 23.9664 156.295 23.7018 156.189 23.402C156.101 23.1022 155.995 22.8024 155.872 22.5026C155.766 22.2204 155.643 21.9735 155.502 21.7619C156.031 21.7796 156.551 21.7884 157.062 21.7884C157.574 21.7884 158.015 21.7884 158.385 21.7884C158.773 21.7884 159.046 21.7884 159.205 21.7884C159.452 21.7707 159.62 21.7178 159.708 21.6297C159.796 21.5415 159.84 21.3828 159.84 21.1535V0.784343ZM150.74 0.784343H153.174V10.2811C153.174 11.4098 153.112 12.609 152.989 13.8788C152.865 15.1486 152.618 16.4183 152.248 17.6881C151.878 18.9579 151.322 20.1747 150.581 21.3387C149.858 22.485 148.888 23.5078 147.671 24.4073C147.548 24.2485 147.372 24.0546 147.142 23.8253C146.931 23.6137 146.701 23.402 146.455 23.1904C146.208 22.9788 145.996 22.8201 145.82 22.7142C146.931 21.8677 147.813 20.9419 148.465 19.9366C149.135 18.9314 149.629 17.8733 149.946 16.7622C150.282 15.6512 150.493 14.5489 150.581 13.4555C150.687 12.3621 150.74 11.2952 150.74 10.2547V0.784343Z" fill="black"/>
</svg>
