<svg width="452" height="60" viewBox="0 0 452 60" fill="none" xmlns="http://www.w3.org/2000/svg">
<path d="M0.14447 48.9788L33.1354 49.0478V40.4723H10.3266V30.1719H29.2223V21.6063H10.3266V10.5666H32.4356V2.03051L0.14447 1.96151V48.9788ZM78.4179 49.0478L63.6326 25.5293L76.969 2.03051H66.3137L58.0733 16.4018L49.2021 2.03051H38.5173L53.066 25.5687L39.2664 49.0872H50.4441L58.5169 35.0609L67.2501 49.0872L78.4179 49.0478ZM109.181 5.24385H125.583V2.03051H89.29V5.26357H105.692V49.0478H109.181V5.24385ZM151.122 30.3H126.184C126.795 22.7102 132.039 17.0031 138.821 17.0031C146.706 17.0031 150.649 23.3805 151.122 30.3ZM154.681 31.9264C154.681 21.7837 148.569 13.9869 138.959 13.9869C129.684 13.9869 122.695 21.8724 122.695 31.8673V32.0053C122.695 42.6901 130.492 49.8758 139.452 49.8758C146.036 49.8758 150.137 47.1849 153.636 43.4294L151.349 41.458C149.896 43.1529 148.092 44.5113 146.061 45.439C144.03 46.3666 141.822 46.8413 139.59 46.83C132.867 46.83 126.776 41.9016 126.145 33.3359H154.572C154.631 32.8917 154.654 32.4434 154.641 31.9954M192.009 43.1534L189.722 41.182C186.834 44.4052 183.068 46.8891 178.229 46.8891C170.343 46.8891 164.114 40.3048 164.123 32.0348V31.9166C164.123 23.7156 170.166 17.2002 177.923 17.2002C183.029 17.2002 186.39 19.8222 189.347 22.8482L191.703 20.4234C188.48 17.0623 184.438 14.1052 177.992 14.1052C168.135 14.1052 160.516 22.4342 160.516 32.0447V32.1827C160.494 34.4997 160.928 36.7984 161.795 38.9476C162.661 41.0967 163.942 43.0541 165.565 44.7081C167.188 46.362 169.12 47.6801 171.253 48.5871C173.385 49.4941 175.675 49.9722 177.992 49.9941C184.31 49.9941 188.48 47.175 191.969 43.2125M225.975 49.1858H229.386V28.0921C229.386 19.8912 224.349 13.977 215.675 13.977C213.145 13.8848 210.641 14.5119 208.453 15.7856C206.265 17.0592 204.483 18.9271 203.314 21.1726V0H200.022V49.0478H203.314V29.2355C203.314 22.109 208.489 17.0031 215.202 17.0031C222.102 17.0031 226.094 21.6457 226.094 28.6934V49.0478L225.975 49.1858ZM265.827 49.1858H269.119V28.0921C269.119 19.8912 264.082 13.977 255.408 13.977C252.879 13.8872 250.375 14.5153 248.188 15.7887C246.001 17.062 244.218 18.9286 243.047 21.1726V14.7952H239.834V49.0478H243.126V29.2355C243.126 22.109 248.301 17.0031 255.024 17.0031C261.923 17.0031 265.866 21.6457 265.866 28.6934V49.0478L265.827 49.1858ZM308.911 32.0546V32.1728C308.911 40.2358 303.056 46.8891 294.924 46.8891C287.039 46.8891 280.819 40.3048 280.819 32.0348V31.9166C280.819 23.8536 286.664 17.2002 294.796 17.2002C302.682 17.2002 308.911 23.7846 308.911 32.0546ZM312.469 32.0546V31.9166C312.507 29.5903 312.082 27.2798 311.217 25.1197C310.353 22.9597 309.067 20.9933 307.435 19.3354C305.803 17.6775 303.857 16.3612 301.71 15.4632C299.564 14.5652 297.261 14.1036 294.934 14.1052C292.592 14.1128 290.275 14.584 288.117 15.4914C285.958 16.3988 284 17.7246 282.356 19.3923C280.713 21.06 279.415 23.0366 278.539 25.2081C277.663 27.3797 277.225 29.7032 277.251 32.0447V32.1827C277.213 34.5098 277.639 36.8211 278.504 38.9818C279.369 41.1425 280.655 43.1093 282.289 44.7673C283.922 46.4254 285.869 47.7415 288.017 48.6389C290.164 49.5363 292.469 49.997 294.796 49.9941C297.137 49.9851 299.453 49.513 301.61 48.605C303.768 47.697 305.724 46.371 307.367 44.7035C309.01 43.0359 310.307 41.0598 311.182 38.8889C312.058 36.718 312.495 34.3953 312.469 32.0546ZM321.745 49.1858H325.037V0H321.745V49.0478V49.1858ZM365.963 32.0546V32.1728C365.963 40.2358 360.118 46.8891 351.986 46.8891C344.051 46.8891 337.871 40.3048 337.871 32.0348V31.9166C337.871 23.8536 343.716 17.2002 351.848 17.2002C359.733 17.2002 365.963 23.7846 365.963 32.0546ZM369.531 32.0546V31.9166C369.569 29.5895 369.143 27.2781 368.278 25.1174C367.413 22.9567 366.126 20.99 364.493 19.3319C362.86 17.6738 360.913 16.3577 358.765 15.4603C356.618 14.5629 354.313 14.1023 351.986 14.1052C349.645 14.1141 347.329 14.5862 345.171 15.4942C343.014 16.4022 341.057 17.7282 339.414 19.3958C337.772 21.0633 336.475 23.0395 335.599 25.2104C334.724 27.3813 334.286 29.704 334.312 32.0447V32.1827C334.274 34.5089 334.7 36.8195 335.564 38.9795C336.429 41.1396 337.714 43.1059 339.347 44.7638C340.979 46.4218 342.925 47.7381 345.071 48.6361C347.217 49.534 349.521 49.9957 351.848 49.9941C354.189 49.9864 356.506 49.5153 358.665 48.6079C360.824 47.7004 362.781 46.3746 364.425 44.707C366.069 43.0393 367.367 41.0627 368.243 38.8911C369.119 36.7196 369.557 34.3961 369.531 32.0546ZM407.095 30.3V30.4282C407.095 38.225 400.038 43.4688 392.911 43.4688C391.176 43.4978 389.452 43.1794 387.841 42.5324C386.23 41.8855 384.765 40.923 383.532 39.7015C382.299 38.4801 381.322 37.0244 380.659 35.42C379.997 33.8156 379.661 32.095 379.674 30.3592V30.2409C379.674 22.2371 385.726 17.2692 392.911 17.2692C400.097 17.2692 407.095 22.3751 407.095 30.3ZM405.824 55.5041C408.574 52.754 410.19 48.8507 410.19 43.8828V14.7853H406.898V21.626C405.336 19.2592 403.208 17.3193 400.708 15.982C398.207 14.6447 395.412 13.9522 392.576 13.9672C390.425 13.9464 388.292 14.3514 386.298 15.1589C384.304 15.9665 382.49 17.1605 380.96 18.6723C379.43 20.1841 378.214 21.9837 377.383 23.9675C376.551 25.9513 376.12 28.08 376.115 30.231V30.3592C376.115 40.216 384.316 46.485 392.576 46.485C399.368 46.485 403.941 42.7887 406.898 38.5995V43.528C406.898 52.3302 401.319 56.8347 393.454 56.8347C388.442 56.8119 383.582 55.1076 379.654 51.995L377.683 54.6859C382.219 58.122 387.763 59.9652 393.454 59.9298C398.5 59.9298 402.936 58.3133 405.893 55.3562M451.855 14.7656H448.208L435.868 45.4008L421.595 14.7754H417.761L434.222 48.8408C431.669 54.8239 429.293 56.9037 425.764 56.9037C423.736 56.9802 421.721 56.5392 419.909 55.6223L418.766 58.5203C420.885 59.5225 423.204 60.0282 425.547 59.9988C430.476 59.9988 433.946 57.4459 436.972 50.2503L451.826 14.7656H451.855Z" fill="#111111"/>
</svg>
