<svg width="304" height="47" viewBox="0 0 304 47" fill="none" xmlns="http://www.w3.org/2000/svg">
<path d="M13.9546 35.7776L34.1061 35.8198V30.5817H20.1741V24.29H31.7159V19.0579H20.1741V12.3146H33.6787V7.10063L13.9546 7.05848V35.7776ZM61.7656 35.8198L52.7344 21.4542L60.8806 7.10063H54.3721L49.3387 15.8789L43.92 7.10063H37.3935L46.2802 21.4783L37.8511 35.8438H44.6786L49.6097 27.2763L54.9441 35.8438L61.7656 35.8198ZM80.5565 9.0634H90.5751V7.10063H68.4065V9.07545H78.4251V35.8198H80.5565V9.0634ZM106.175 24.3682H90.9423C91.3156 19.7322 94.5187 16.2462 98.661 16.2462C103.478 16.2462 105.886 20.1416 106.175 24.3682ZM108.348 25.3617C108.348 19.1663 104.616 14.4038 98.7453 14.4038C93.0797 14.4038 88.811 19.2205 88.811 25.3255V25.4098C88.811 31.9364 93.5734 36.3255 99.0463 36.3255C103.068 36.3255 105.573 34.6818 107.71 32.3879L106.313 31.1838C105.426 32.219 104.324 33.0488 103.083 33.6154C101.843 34.182 100.494 34.472 99.1306 34.4651C95.0244 34.4651 91.3036 31.4547 90.9183 26.2226H108.282C108.318 25.9513 108.332 25.6774 108.324 25.4038M131.149 32.2193L129.752 31.0152C127.988 32.984 125.688 34.5012 122.732 34.5012C117.915 34.5012 114.11 30.4793 114.116 25.4279V25.3556C114.116 20.3464 117.807 16.3666 122.545 16.3666C125.664 16.3666 127.717 17.9681 129.524 19.8165L130.962 18.3354C128.994 16.2823 126.525 14.4761 122.588 14.4761C116.567 14.4761 111.913 19.5636 111.913 25.4339V25.5182C111.899 26.9335 112.165 28.3376 112.694 29.6503C113.223 30.963 114.006 32.1587 114.997 33.169C115.988 34.1792 117.169 34.9844 118.471 35.5383C119.773 36.0924 121.172 36.3844 122.588 36.3978C126.447 36.3978 128.994 34.6758 131.125 32.2555M151.897 35.904H153.98V23.0196C153.98 18.0103 150.903 14.3978 145.605 14.3978C144.06 14.3415 142.53 14.7245 141.194 15.5025C139.857 16.2804 138.769 17.4214 138.055 18.793V5.86035H136.044V35.8198H138.055V23.718C138.055 19.365 141.216 16.2462 145.316 16.2462C149.531 16.2462 151.969 19.082 151.969 23.3868V35.8198L151.897 35.904ZM176.239 35.904H178.25V23.0196C178.25 18.0103 175.173 14.3978 169.875 14.3978C168.33 14.3429 166.801 14.7266 165.465 15.5044C164.129 16.2822 163.04 17.4223 162.325 18.793V14.8975H160.362V35.8198H162.373V23.718C162.373 19.365 165.534 16.2462 169.64 16.2462C173.855 16.2462 176.263 19.082 176.263 23.3868V35.8198L176.239 35.904ZM202.556 25.4399V25.5122C202.556 30.4372 198.979 34.5012 194.012 34.5012C189.195 34.5012 185.396 30.4793 185.396 25.4279V25.3556C185.396 20.4306 188.967 16.3666 193.934 16.3666C198.75 16.3666 202.556 20.3885 202.556 25.4399ZM204.729 25.4399V25.3556C204.752 23.9347 204.492 22.5234 203.964 21.204C203.436 19.8846 202.651 18.6835 201.654 17.6708C200.657 16.6581 199.468 15.8541 198.157 15.3056C196.846 14.7571 195.439 14.4751 194.018 14.4761C192.588 14.4808 191.173 14.7685 189.854 15.3228C188.535 15.8771 187.34 16.6869 186.335 17.7056C185.331 18.7242 184.539 19.9316 184.004 21.258C183.468 22.5844 183.201 24.0037 183.217 25.4339V25.5182C183.194 26.9396 183.454 28.3514 183.982 29.6712C184.51 30.991 185.296 32.1924 186.294 33.2052C187.292 34.2179 188.481 35.0219 189.793 35.57C191.104 36.1182 192.512 36.3995 193.934 36.3978C195.364 36.3923 196.778 36.1039 198.096 35.5493C199.414 34.9947 200.609 34.1847 201.613 33.1662C202.616 32.1476 203.408 30.9405 203.943 29.6145C204.478 28.2884 204.745 26.8697 204.729 25.4399ZM210.395 35.904H212.406V5.86035H210.395V35.8198V35.904ZM237.404 25.4399V25.5122C237.404 30.4372 233.834 34.5012 228.866 34.5012C224.02 34.5012 220.245 30.4793 220.245 25.4279V25.3556C220.245 20.4306 223.815 16.3666 228.782 16.3666C233.599 16.3666 237.404 20.3885 237.404 25.4399ZM239.583 25.4399V25.3556C239.607 23.9342 239.346 22.5224 238.818 21.2026C238.29 19.8828 237.504 18.6815 236.506 17.6687C235.509 16.6559 234.319 15.852 233.007 15.3038C231.696 14.7557 230.288 14.4743 228.866 14.4761C227.437 14.4816 226.022 14.7699 224.704 15.3246C223.386 15.8792 222.191 16.6891 221.188 17.7077C220.184 18.7263 219.392 19.9333 218.857 21.2594C218.322 22.5854 218.055 24.0042 218.071 25.4339V25.5182C218.048 26.9391 218.308 28.3504 218.836 29.6698C219.364 30.9892 220.149 32.1903 221.146 33.203C222.143 34.2157 223.332 35.0198 224.643 35.5683C225.954 36.1168 227.361 36.3987 228.782 36.3978C230.212 36.3931 231.628 36.1053 232.946 35.551C234.265 34.9968 235.461 34.1869 236.465 33.1683C237.469 32.1496 238.261 30.9423 238.797 29.6159C239.332 28.2894 239.599 26.8702 239.583 25.4399ZM262.529 24.3682V24.4465C262.529 29.2089 258.218 32.412 253.865 32.412C252.805 32.4297 251.752 32.2352 250.768 31.84C249.784 31.4449 248.889 30.8569 248.136 30.1109C247.382 29.3648 246.786 28.4756 246.381 27.4956C245.976 26.5156 245.771 25.4646 245.779 24.4044V24.3321C245.779 19.4432 249.476 16.4088 253.865 16.4088C258.254 16.4088 262.529 19.5275 262.529 24.3682ZM261.752 39.7634C263.432 38.0836 264.419 35.6993 264.419 32.6649V14.8915H262.408V19.0699C261.454 17.6242 260.154 16.4393 258.627 15.6225C257.099 14.8056 255.392 14.3826 253.66 14.3918C252.346 14.3791 251.043 14.6265 249.825 15.1197C248.607 15.613 247.499 16.3423 246.565 17.2658C245.63 18.1892 244.887 19.2885 244.379 20.5002C243.871 21.712 243.608 23.0122 243.605 24.3261V24.4044C243.605 30.4251 248.615 34.2544 253.66 34.2544C257.808 34.2544 260.602 31.9966 262.408 29.4377V32.4481C262.408 37.8247 259 40.5762 254.196 40.5762C251.134 40.5622 248.166 39.5212 245.767 37.62L244.563 39.2636C247.334 41.3624 250.72 42.4883 254.196 42.4667C257.278 42.4667 259.988 41.4793 261.794 39.6731M289.869 14.8795H287.641L280.103 33.5921L271.385 14.8855H269.043L279.098 35.6933C277.538 39.3479 276.087 40.6183 273.932 40.6183C272.693 40.665 271.462 40.3957 270.356 39.8356L269.657 41.6057C270.951 42.2179 272.368 42.5268 273.799 42.5088C276.81 42.5088 278.929 40.9495 280.778 36.5543L289.851 14.8795H289.869Z" fill="#111111"/>
</svg>
