<svg width="636" height="60" viewBox="0 0 636 60" fill="none" xmlns="http://www.w3.org/2000/svg">
<path d="M34.4725 49.1214H44.3505V1.95473H34.2413L22.4384 25.1203L10.6355 1.95473H0.518799V49.1214H10.3968V22.3225L19.2079 37.6393H25.6689L34.4725 22.2926V49.1214ZM55.6759 49.1214H87.6899V40.5565H65.5539V29.6116H83.8849V21.0467H65.5539V10.5196H87.0109V1.95473H55.6759V49.1214ZM117.003 10.5196H129.179V1.95473H94.9715V10.5196H107.125V49.1214H117.003V10.5196ZM155.53 33.909H143.794L149.472 15.9286L155.53 33.909ZM160.603 49.1363H170.869L153.71 1.96964H145.928L128.769 49.1363H139.02L141.31 41.78H158.171L160.603 49.1363ZM200.571 5.25982H216.984V2.02932H180.695V5.25982H197.109V49.0468H200.6L200.571 5.25982ZM242.485 30.3129H217.566C218.17 22.7179 223.408 17.0105 230.197 17.0105C238.053 17.0105 242.015 23.3894 242.485 30.3129ZM245.976 33.2972C246.034 32.852 246.057 32.403 246.044 31.9543C246.044 21.8077 239.933 14.0485 230.331 14.0485C221.058 14.0485 214.074 21.9718 214.074 31.9543V32.0886C214.074 42.7648 221.863 49.9495 230.869 49.9495C237.449 49.9495 241.545 47.2637 245.044 43.5034L242.761 41.4891C239.941 44.5107 236.315 46.8608 231.01 46.8608C224.296 46.8608 218.178 41.8919 217.581 33.3643L245.976 33.2972ZM255.519 31.9543V31.82C255.519 23.6132 261.562 17.1074 269.351 17.1074C274.454 17.1074 277.811 19.7262 280.773 22.7477L283.123 20.3305C279.893 16.9731 275.864 14.0187 269.418 14.0187C259.615 14.0187 251.953 22.3449 251.953 31.9244V32.0587C251.953 41.6607 259.548 49.8525 269.418 49.8525C275.73 49.8525 279.863 47.0324 283.392 43.0707L281.109 41.0563C278.214 44.2794 274.454 46.7638 269.619 46.7638C261.763 46.7638 255.519 40.1834 255.519 31.9244M317.376 49.0468H320.666V28.0747C320.666 19.8679 315.63 13.9739 306.968 13.9739C304.44 13.8856 301.938 14.5131 299.751 15.7842C297.564 17.0553 295.78 18.9183 294.605 21.1586V0H291.315V49.0318H294.605V29.2236C294.605 22.0987 299.776 16.9955 306.49 16.9955C313.414 16.9955 317.376 21.6286 317.376 28.679V49.0468ZM357.201 49.0468H360.499V28.0747C360.499 19.8679 355.455 13.9739 346.793 13.9739C344.266 13.887 341.766 14.5152 339.581 15.7862C337.395 17.0572 335.612 18.9194 334.438 21.1586V14.7797H331.141V49.0318H334.438V29.2236C334.438 22.0987 339.608 16.9955 346.323 16.9955C353.239 16.9955 357.201 21.6286 357.201 28.679V49.0468ZM400.257 32.0587C400.257 40.1163 394.415 46.7638 386.283 46.7638C378.359 46.7638 372.182 40.1834 372.182 31.9244V31.7901C372.182 23.7251 378.024 17.0776 386.148 17.0776C394.079 17.0776 400.257 23.6579 400.257 31.9244V32.0587ZM403.815 31.9244V31.7901C403.815 22.1807 396.429 13.9888 386.283 13.9888C376.136 13.9888 368.623 22.315 368.623 31.8946V32.0289C368.623 41.6308 376.009 49.8227 386.148 49.8227C396.288 49.8227 403.815 41.4965 403.815 31.917M413.082 49.0393H416.417V0H413.119L413.082 49.0393ZM457.279 32.0513C457.279 40.1088 451.437 46.7563 443.312 46.7563C435.382 46.7563 429.204 40.176 429.204 31.917V31.7827C429.204 23.7176 435.046 17.0701 443.178 17.0701C451.102 17.0701 457.279 23.6505 457.279 31.917V32.0513ZM460.838 31.917V31.7827C460.838 22.1733 453.452 13.9814 443.312 13.9814C433.173 13.9814 425.646 22.3076 425.646 31.8871V32.0214C425.646 41.6234 433.032 49.8152 443.178 49.8152C453.325 49.8152 460.838 41.4891 460.838 31.9095M498.388 30.298C498.388 38.087 491.337 43.3244 484.212 43.3244C482.478 43.3533 480.756 43.0353 479.147 42.3892C477.538 41.7431 476.074 40.7819 474.842 39.562C473.61 38.3422 472.634 36.8883 471.971 35.2859C471.309 33.6835 470.973 31.9648 470.984 30.2308V30.0966C470.984 22.0987 477.027 17.1298 484.212 17.1298C491.397 17.1298 498.388 22.233 498.388 30.1637V30.298ZM497.112 55.3511C499.865 52.5981 501.476 48.6961 501.476 43.7273V14.7797H498.186V21.6286C495.366 17.5999 490.725 13.9739 483.876 13.9739C475.617 13.9739 467.418 20.3529 467.418 30.2308V30.3651C467.418 40.1685 475.625 46.4803 483.876 46.4803C490.658 46.4803 495.232 42.7499 498.186 38.557V43.5259C498.186 52.322 492.605 56.8283 484.757 56.8283C479.733 56.8158 474.86 55.1099 470.925 51.9863L468.977 54.6796C473.501 58.0955 479.021 59.9304 484.69 59.9021C489.726 59.9021 494.165 58.2906 497.119 55.3362M543.055 14.7648H539.429L527.074 45.391L512.831 14.7648H509.004L525.455 48.8304C522.904 54.799 520.546 56.8954 516.987 56.8954C514.963 56.9727 512.953 56.5336 511.145 55.6197L510.004 58.507C512.121 59.514 514.441 60.0243 516.786 59.9991C521.695 59.9991 525.186 57.4475 528.208 50.2554L543.055 14.7648Z" fill="#111111"/>
<path d="M558.34 49.5531V45.7542L574.262 30.3911C575.677 29.0503 576.72 27.8771 577.39 26.8715C578.098 25.8287 578.563 24.879 578.787 24.0223C579.047 23.1285 579.178 22.2719 579.178 21.4525C579.178 19.4413 578.47 17.8585 577.055 16.7039C575.64 15.5493 573.573 14.9721 570.854 14.9721C568.768 14.9721 566.887 15.3259 565.211 16.0335C563.535 16.7039 562.083 17.7654 560.854 19.2179L557.055 15.9218C558.545 14.0223 560.537 12.5698 563.033 11.5642C565.565 10.5214 568.34 10 571.357 10C574.075 10 576.44 10.4469 578.452 11.3408C580.463 12.1974 582.008 13.4451 583.088 15.0838C584.206 16.7225 584.764 18.6592 584.764 20.8939C584.764 22.1601 584.597 23.4078 584.262 24.6369C583.926 25.8659 583.293 27.1695 582.362 28.5475C581.431 29.9255 580.09 31.4711 578.34 33.1844L564.15 46.8715L562.809 44.6927H586.44V49.5531H558.34Z" fill="#111111"/>
<path d="M595.266 49.8883C594.224 49.8883 593.33 49.5345 592.585 48.8268C591.84 48.0819 591.467 47.1508 591.467 46.0335C591.467 44.9162 591.84 44.0037 592.585 43.2961C593.33 42.5885 594.224 42.2346 595.266 42.2346C596.272 42.2346 597.129 42.5885 597.836 43.2961C598.581 44.0037 598.953 44.9162 598.953 46.0335C598.953 47.1508 598.581 48.0819 597.836 48.8268C597.129 49.5345 596.272 49.8883 595.266 49.8883Z" fill="#111111"/>
<path d="M619.559 50C616.505 50 613.768 49.2179 611.347 47.6536C608.963 46.0894 607.064 43.8175 605.649 40.838C604.271 37.8585 603.582 34.2458 603.582 30C603.582 25.7542 604.271 22.1415 605.649 19.162C607.064 16.1825 608.963 13.9106 611.347 12.3464C613.768 10.7821 616.505 10 619.559 10C622.576 10 625.295 10.7821 627.716 12.3464C630.137 13.9106 632.036 16.1825 633.414 19.162C634.792 22.1415 635.481 25.7542 635.481 30C635.481 34.2458 634.792 37.8585 633.414 40.838C632.036 43.8175 630.137 46.0894 627.716 47.6536C625.295 49.2179 622.576 50 619.559 50ZM619.559 45.0279C621.608 45.0279 623.395 44.4693 624.922 43.352C626.487 42.2346 627.697 40.5587 628.554 38.324C629.448 36.0894 629.894 33.3147 629.894 30C629.894 26.6853 629.448 23.9106 628.554 21.676C627.697 19.4413 626.487 17.7654 624.922 16.648C623.395 15.5307 621.608 14.9721 619.559 14.9721C617.511 14.9721 615.705 15.5307 614.14 16.648C612.576 17.7654 611.347 19.4413 610.453 21.676C609.597 23.9106 609.168 26.6853 609.168 30C609.168 33.3147 609.597 36.0894 610.453 38.324C611.347 40.5587 612.576 42.2346 614.14 43.352C615.705 44.4693 617.511 45.0279 619.559 45.0279Z" fill="#111111"/>
</svg>
