<svg width="65" height="65" viewBox="0 0 65 65" fill="none" xmlns="http://www.w3.org/2000/svg">
<path fill-rule="evenodd" clip-rule="evenodd" d="M28.436 23.2278C28.683 23.7218 28.4828 24.3225 27.9888 24.5695C25.8068 25.6604 22.6562 28.2792 22.6562 32.0126V34.9583C22.6562 35.4836 23.0765 35.9171 23.6562 35.9171H32.4461C32.9984 35.9171 33.4461 36.3648 33.4461 36.9171C33.4461 37.4694 32.9984 37.9171 32.4461 37.9171H23.6562C22.0268 37.9171 20.6562 36.6422 20.6562 34.9583V32.0126C20.6562 27.1142 24.6989 23.9783 27.0944 22.7806C27.5884 22.5336 28.189 22.7338 28.436 23.2278Z" fill="#C00F41"/>
<path fill-rule="evenodd" clip-rule="evenodd" d="M36.4565 23.2278C36.2096 23.7218 36.4098 24.3225 36.9038 24.5695C39.0858 25.6604 42.2363 28.2792 42.2363 32.0126V34.9583C42.2363 35.4836 41.8161 35.9171 41.2363 35.9171H32.4465C31.8942 35.9171 31.4465 36.3648 31.4465 36.9171C31.4465 37.4694 31.8942 37.9171 32.4465 37.9171H41.2363C42.8657 37.9171 44.2363 36.6422 44.2363 34.9583V32.0126C44.2363 27.1142 40.1937 23.9783 37.7982 22.7806C37.3042 22.5336 36.7035 22.7338 36.4565 23.2278Z" fill="#C00F41"/>
<path fill-rule="evenodd" clip-rule="evenodd" d="M32.4468 24.6181C35.676 24.6181 38.2939 22.0003 38.2939 18.771C38.2939 15.5417 35.676 12.9238 32.4468 12.9238C29.2175 12.9238 26.5996 15.5417 26.5996 18.771C26.5996 22.0003 29.2175 24.6181 32.4468 24.6181ZM32.4468 26.6181C36.7806 26.6181 40.2939 23.1048 40.2939 18.771C40.2939 14.4371 36.7806 10.9238 32.4468 10.9238C28.1129 10.9238 24.5996 14.4371 24.5996 18.771C24.5996 23.1048 28.1129 26.6181 32.4468 26.6181Z" fill="#C00F41"/>
<path fill-rule="evenodd" clip-rule="evenodd" d="M8.81901 23.7201C9.06488 24.2146 8.8633 24.8148 8.36876 25.0607C6.71928 25.8808 5 27.4412 5 30.458V32.4819C5 33.012 5.42536 33.4481 6 33.4481H15.2803C15.8326 33.4481 16.2803 33.8958 16.2803 34.4481C16.2803 35.0004 15.8326 35.4481 15.2803 35.4481H6C4.3655 35.4481 3 34.1608 3 32.4819V30.458C3 26.4522 5.38264 24.3118 7.47838 23.2698C7.97291 23.024 8.57313 23.2255 8.81901 23.7201Z" fill="#111111"/>
<path fill-rule="evenodd" clip-rule="evenodd" d="M10.5823 13.0218C11.8352 12.7601 13.1383 12.8294 14.3544 13.223C15.5707 13.6167 16.6581 14.3213 17.4982 15.2667L16.0033 16.5953C15.4045 15.9215 14.6227 15.412 13.7386 15.1258C12.8542 14.8396 11.9043 14.7888 10.9913 14.9795C10.0783 15.1702 9.24067 15.5943 8.56602 16.202C7.89167 16.8094 7.40585 17.577 7.15502 18.4206C6.90427 19.2638 6.89637 20.1556 7.13202 21.0027C7.36776 21.85 7.83969 22.6251 8.50284 23.2433C9.1663 23.8617 9.996 24.2993 10.9053 24.5049C11.8146 24.7105 12.7654 24.6754 13.6549 24.4036L14.2392 26.3164C13.0165 26.6899 11.7123 26.7379 10.4642 26.4556C9.2159 26.1734 8.06622 25.5704 7.13915 24.7062C6.21178 23.8418 5.5416 22.7479 5.2052 21.5387C4.86872 20.3293 4.88009 19.0541 5.23797 17.8505C5.59576 16.6473 6.28514 15.5648 7.22744 14.716C8.16945 13.8674 9.3294 13.2835 10.5823 13.0218Z" fill="#111111"/>
<path fill-rule="evenodd" clip-rule="evenodd" d="M56.0736 23.7201C55.8277 24.2146 56.0293 24.8148 56.5238 25.0607C58.1733 25.8808 59.8926 27.4412 59.8926 30.458V32.4819C59.8926 33.012 59.4672 33.4481 58.8926 33.4481H49.6123C49.06 33.4481 48.6123 33.8958 48.6123 34.4481C48.6123 35.0004 49.06 35.4481 49.6123 35.4481H58.8926C60.5271 35.4481 61.8926 34.1608 61.8926 32.4819V30.458C61.8926 26.4522 59.5099 24.3118 57.4142 23.2698C56.9197 23.024 56.3194 23.2255 56.0736 23.7201Z" fill="#111111"/>
<path fill-rule="evenodd" clip-rule="evenodd" d="M54.3102 13.0218C53.0574 12.7601 51.7542 12.8294 50.5381 13.223C49.3219 13.6167 48.2345 14.3213 47.3943 15.2667L48.8893 16.5953C49.4881 15.9215 50.2698 15.412 51.154 15.1258C52.0383 14.8396 52.9883 14.7888 53.9013 14.9795C54.8143 15.1702 55.6519 15.5943 56.3266 16.202C57.0009 16.8094 57.4867 17.577 57.7376 18.4206C57.9883 19.2638 57.9962 20.1556 57.7606 21.0027C57.5248 21.85 57.0529 22.6251 56.3897 23.2433C55.7263 23.8617 54.8966 24.2993 53.9873 24.5049C53.0779 24.7105 52.1272 24.6754 51.2377 24.4036L50.6534 26.3164C51.8761 26.6899 53.1803 26.7379 54.4284 26.4556C55.6767 26.1734 56.8264 25.5704 57.7534 24.7062C58.6808 23.8418 59.351 22.7479 59.6874 21.5387C60.0239 20.3293 60.0125 19.0541 59.6546 17.8505C59.2968 16.6473 58.6074 15.5648 57.6651 14.716C56.7231 13.8674 55.5632 13.2835 54.3102 13.0218Z" fill="#111111"/>
<path fill-rule="evenodd" clip-rule="evenodd" d="M32.446 44.2357C42.1761 44.2357 50.0638 36.3479 50.0638 26.6179C50.0638 16.8878 42.1761 9 32.446 9C22.7159 9 14.8281 16.8878 14.8281 26.6179C14.8281 36.3479 22.7159 44.2357 32.446 44.2357ZM32.446 46.2357C43.2806 46.2357 52.0638 37.4525 52.0638 26.6179C52.0638 15.7832 43.2806 7 32.446 7C21.6113 7 12.8281 15.7832 12.8281 26.6179C12.8281 37.4525 21.6113 46.2357 32.446 46.2357Z" fill="black"/>
<path fill-rule="evenodd" clip-rule="evenodd" d="M49.252 44.3767L47.2562 46.3642L56.362 55.5078L58.3578 53.5203L49.252 44.3767ZM45.8449 44.9471C45.0622 45.7265 45.0596 46.9929 45.839 47.7755L54.9449 56.9191C55.7243 57.7018 56.9906 57.7044 57.7733 56.925L59.7691 54.9374C60.5518 54.158 60.5544 52.8916 59.7749 52.109L50.6691 42.9654C49.8897 42.1827 48.6233 42.1801 47.8407 42.9595L45.8449 44.9471Z" fill="#111111"/>
<path fill-rule="evenodd" clip-rule="evenodd" d="M53.24 46.1505L49.3156 50.0587L47.9043 48.6416L51.8287 44.7334L53.24 46.1505Z" fill="black"/>
<path d="M43.5469 41.8516L44.7544 40.649L48.043 43.9512L46.8354 45.1538L43.5469 41.8516Z" fill="#111111"/>
</svg>
