<svg width="65" height="65" viewBox="0 0 65 65" fill="none" xmlns="http://www.w3.org/2000/svg">
<path fill-rule="evenodd" clip-rule="evenodd" d="M10 13C10 11.3431 11.3431 10 13 10H46.5C48.1567 10 49.5 11.3429 49.5 12.9998V16.5H52.5C54.1569 16.5 55.5 17.8431 55.5 19.5V52.5C55.5 54.1569 54.1569 55.5 52.5 55.5H13C11.3431 55.5 10 54.1569 10 52.5V13ZM49.5 18.5V47C49.5 47.3263 49.5788 47.5069 49.6511 47.6116C49.7268 47.7213 49.8441 47.8176 50.0226 47.8949C50.4119 48.0636 50.9504 48.0778 51.3356 48.0136C51.8804 47.9228 52.3956 48.2908 52.4864 48.8356C52.5772 49.3804 52.2092 49.8956 51.6644 49.9864C51.0496 50.0889 50.0881 50.103 49.2274 49.7301C48.7809 49.5366 48.3357 49.2267 48.0051 48.7478C47.6712 48.2639 47.5 47.6737 47.5 47V12.9998C47.5 12.4477 47.0524 12 46.5 12H13C12.4477 12 12 12.4477 12 13V52.5C12 53.0523 12.4477 53.5 13 53.5H52.5C53.0523 53.5 53.5 53.0523 53.5 52.5V19.5C53.5 18.9477 53.0523 18.5 52.5 18.5H49.5Z" fill="black"/>
<path fill-rule="evenodd" clip-rule="evenodd" d="M16 17C16 16.4477 16.4477 16 17 16L43 16C43.5523 16 44 16.4477 44 17C44 17.5523 43.5523 18 43 18L17 18C16.4477 18 16 17.5523 16 17Z" fill="#111111"/>
<path fill-rule="evenodd" clip-rule="evenodd" d="M15 41C15 40.4477 15.4477 40 16 40H27C27.5523 40 28 40.4477 28 41C28 41.5523 27.5523 42 27 42H16C15.4477 42 15 41.5523 15 41Z" fill="#111111"/>
<path fill-rule="evenodd" clip-rule="evenodd" d="M31 41C31 40.4477 31.4477 40 32 40H43C43.5523 40 44 40.4477 44 41C44 41.5523 43.5523 42 43 42H32C31.4477 42 31 41.5523 31 41Z" fill="#111111"/>
<path fill-rule="evenodd" clip-rule="evenodd" d="M31 29C31 28.4477 31.4477 28 32 28L43 28C43.5523 28 44 28.4477 44 29C44 29.5523 43.5523 30 43 30L32 30C31.4477 30 31 29.5523 31 29Z" fill="#111111"/>
<path fill-rule="evenodd" clip-rule="evenodd" d="M31 23C31 22.4477 31.4477 22 32 22L43 22C43.5523 22 44 22.4477 44 23C44 23.5523 43.5523 24 43 24L32 24C31.4477 24 31 23.5523 31 23Z" fill="#111111"/>
<path fill-rule="evenodd" clip-rule="evenodd" d="M15 47C15 46.4477 15.4477 46 16 46H27C27.5523 46 28 46.4477 28 47C28 47.5523 27.5523 48 27 48H16C15.4477 48 15 47.5523 15 47Z" fill="#111111"/>
<path fill-rule="evenodd" clip-rule="evenodd" d="M31 47C31 46.4477 31.4477 46 32 46H43C43.5523 46 44 46.4477 44 47C44 47.5523 43.5523 48 43 48H32C31.4477 48 31 47.5523 31 47Z" fill="#111111"/>
<path fill-rule="evenodd" clip-rule="evenodd" d="M31 35C31 34.4477 31.4477 34 32 34H43C43.5523 34 44 34.4477 44 35C44 35.5523 43.5523 36 43 36H32C31.4477 36 31 35.5523 31 35Z" fill="#111111"/>
<path fill-rule="evenodd" clip-rule="evenodd" d="M25 24H18V34H25V24ZM18 22C16.8954 22 16 22.8954 16 24V34C16 35.1046 16.8954 36 18 36H25C26.1046 36 27 35.1046 27 34V24C27 22.8954 26.1046 22 25 22H18Z" fill="#C00F41"/>
</svg>
