<svg width="65" height="65" viewBox="0 0 65 65" fill="none" xmlns="http://www.w3.org/2000/svg">
<path fill-rule="evenodd" clip-rule="evenodd" d="M57 10H8C7.44772 10 7 10.4477 7 11C7 11.5523 7.44772 12 8 12H57C57.5523 12 58 11.5523 58 11C58 10.4477 57.5523 10 57 10ZM8 8C6.34315 8 5 9.34315 5 11C5 12.6569 6.34315 14 8 14H57C58.6569 14 60 12.6569 60 11C60 9.34315 58.6569 8 57 8H8Z" fill="#111111"/>
<path fill-rule="evenodd" clip-rule="evenodd" d="M57 41H8C7.44772 41 7 41.4477 7 42C7 42.5523 7.44772 43 8 43H57C57.5523 43 58 42.5523 58 42C58 41.4477 57.5523 41 57 41ZM8 39C6.34315 39 5 40.3431 5 42C5 43.6569 6.34315 45 8 45H57C58.6569 45 60 43.6569 60 42C60 40.3431 58.6569 39 57 39H8Z" fill="#111111"/>
<path fill-rule="evenodd" clip-rule="evenodd" d="M54 14H11V39H54V14ZM9 12V41H56V12H9Z" fill="#111111"/>
<path d="M21 27.5C21 26.6716 21.6716 26 22.5 26C23.3284 26 24 26.6716 24 27.5V33.5C24 34.3284 23.3284 35 22.5 35C21.6716 35 21 34.3284 21 33.5V27.5Z" fill="#C00F41"/>
<path d="M28 19.5C28 18.6716 28.6716 18 29.5 18C30.3284 18 31 18.6716 31 19.5V33.5C31 34.3284 30.3284 35 29.5 35C28.6716 35 28 34.3284 28 33.5V19.5Z" fill="#C00F41"/>
<path d="M42 19.5C42 18.6716 42.6716 18 43.5 18C44.3284 18 45 18.6716 45 19.5V33.5C45 34.3284 44.3284 35 43.5 35C42.6716 35 42 34.3284 42 33.5V19.5Z" fill="#C00F41"/>
<path d="M35 24.5C35 23.6716 35.6716 23 36.5 23C37.3284 23 38 23.6716 38 24.5V33.5C38 34.3284 37.3284 35 36.5 35C35.6716 35 35 34.3284 35 33.5V24.5Z" fill="#C00F41"/>
<path fill-rule="evenodd" clip-rule="evenodd" d="M33 51V45H35V51H33Z" fill="#111111"/>
<path fill-rule="evenodd" clip-rule="evenodd" d="M34 55C35.1046 55 36 54.1046 36 53C36 51.8954 35.1046 51 34 51C32.8954 51 32 51.8954 32 53C32 54.1046 32.8954 55 34 55ZM34 57C36.2091 57 38 55.2091 38 53C38 50.7909 36.2091 49 34 49C31.7909 49 30 50.7909 30 53C30 55.2091 31.7909 57 34 57Z" fill="#111111"/>
</svg>
