<svg width="65" height="65" viewBox="0 0 65 65" fill="none" xmlns="http://www.w3.org/2000/svg">
<path fill-rule="evenodd" clip-rule="evenodd" d="M32.6763 42H22C25.2251 38.4444 31.6086 28.2 31.3417 15.6667H28.339L32.6763 10V42ZM32.6763 42H43.3525C40.1274 38.4444 33.7439 28.2 34.0108 15.6667H37.0135L32.6763 10V42Z" fill="url(#paint0_linear_133_703)"/>
<path fill-rule="evenodd" clip-rule="evenodd" d="M23.0845 41H17C18.838 38.4444 22.476 31.0812 22.3239 22.0729H20.6127L23.0845 18L25.5563 22.0729H23.845C23.6929 31.0812 27.3309 38.4444 29.1689 41H23.0845Z" fill="url(#paint1_linear_133_703)"/>
<path fill-rule="evenodd" clip-rule="evenodd" d="M43.0845 41H37C38.838 38.4444 42.476 31.0812 42.3239 22.0729H40.6127L43.0845 18L45.5563 22.0729H43.845C43.6929 31.0812 47.3309 38.4444 49.1689 41H43.0845Z" fill="url(#paint2_linear_133_703)"/>
<mask id="mask0_133_703" style="mask-type:alpha" maskUnits="userSpaceOnUse" x="15" y="9" width="35" height="47">
<path fill-rule="evenodd" clip-rule="evenodd" d="M32.7441 56H15.5469C20.7419 50.7778 31.0244 35.7312 30.5945 17.3229H25.7577L32.7441 9V56ZM32.7441 56H49.9414C44.7464 50.7778 34.4639 35.7312 34.8938 17.3229H39.7305L32.7441 9V56Z" fill="url(#paint3_linear_133_703)"/>
</mask>
<g mask="url(#mask0_133_703)">
<rect x="13.873" y="50" width="37.7431" height="9" fill="#C00F41"/>
</g>
<path fill-rule="evenodd" clip-rule="evenodd" d="M19.9115 31.8734C19.925 31.8639 19.9463 31.8508 19.9759 31.8368C20.0601 31.7968 20.1534 31.7762 20.22 31.7762H46.5922C46.6218 31.7762 46.6589 31.7804 46.6999 31.7905C46.7408 31.8006 46.7788 31.8149 46.8102 31.8306C46.8207 31.8358 46.8296 31.8407 46.8367 31.845L55.0474 48.2238H10.0497L19.9115 31.8734ZM55.6827 48.1645C55.6906 48.16 55.6923 48.16 55.6855 48.1632C55.6846 48.1636 55.6837 48.164 55.6827 48.1645ZM19.3506 30.2029C19.6091 30.0801 19.9145 30 20.22 30H46.5922C46.8987 30 47.2032 30.0806 47.4611 30.2091C47.6987 30.3275 48.0052 30.5412 48.1879 30.8974L48.1918 30.905L56.8723 48.2213C56.8732 48.223 56.8741 48.2247 56.875 48.2264C56.9496 48.3737 57.0047 48.561 56.9997 48.7758C56.9946 48.9942 56.9286 49.1821 56.8417 49.328C56.6839 49.5931 56.4552 49.7285 56.3108 49.7971C56.001 49.9443 55.6122 50 55.2341 50H9.72846C9.35314 50 8.96362 49.9453 8.65407 49.7898C8.50848 49.7167 8.27324 49.5683 8.12415 49.2772C7.93521 48.9082 7.9773 48.5 8.14708 48.1945L8.15491 48.1804L18.6106 30.8454C18.6109 30.8449 18.6113 30.8443 18.6116 30.8437C18.8078 30.517 19.1105 30.3169 19.3506 30.2029Z" fill="#111111"/>
<path fill-rule="evenodd" clip-rule="evenodd" d="M21.0606 33.9881C21.1247 33.9969 21.1984 34.0022 21.2814 34.0022C21.5706 34.0022 21.8561 33.9382 22.0758 33.842C22.1193 33.8229 22.157 33.8041 22.1896 33.7861C22.1225 33.7746 22.0433 33.7674 21.9525 33.7674C21.6841 33.7674 21.4069 33.8299 21.1837 33.9277C21.1373 33.948 21.0965 33.9683 21.0606 33.9881ZM20.7393 32.8472C21.099 32.6897 21.527 32.5938 21.9525 32.5938C22.3659 32.5938 22.779 32.6853 23.0825 32.9123C23.2395 33.0298 23.3877 33.2005 23.4598 33.4313C23.5346 33.6706 23.5083 33.914 23.4142 34.1276C23.2405 34.5221 22.8576 34.7746 22.5201 34.9224C22.1569 35.0814 21.7201 35.1759 21.2814 35.1759C20.858 35.1759 20.4331 35.0872 20.1258 34.8573C19.9653 34.7372 19.8116 34.5579 19.7471 34.3113C19.6804 34.0566 19.7296 33.8091 19.8381 33.6038C20.0303 33.2402 20.3995 32.9961 20.7393 32.8472Z" fill="#111111"/>
<path fill-rule="evenodd" clip-rule="evenodd" d="M26.8788 33.9538C26.9768 33.9812 27.1092 34.0022 27.2758 34.0022C27.5655 34.0022 27.826 33.9381 28.0074 33.8506C28.0256 33.8418 28.0422 33.8332 28.0572 33.825C27.9595 33.7929 27.8235 33.7674 27.6512 33.7674C27.3829 33.7674 27.1302 33.8298 26.9452 33.919C26.9206 33.9309 26.8985 33.9426 26.8788 33.9538ZM26.4633 32.8559C26.8073 32.6899 27.2256 32.5938 27.6512 32.5938C28.0708 32.5938 28.4801 32.6878 28.7932 32.89C29.1076 33.0931 29.4207 33.4913 29.2958 34.0231C29.1888 34.4783 28.8074 34.7602 28.4893 34.9137C28.1417 35.0815 27.7142 35.1759 27.2758 35.1759C26.8452 35.1759 26.4252 35.0843 26.1083 34.8796C25.9475 34.7758 25.7869 34.6251 25.6879 34.4147C25.5827 34.1913 25.5666 33.9402 25.6444 33.6992C25.7798 33.28 26.1433 33.0104 26.4633 32.8559Z" fill="#111111"/>
<path fill-rule="evenodd" clip-rule="evenodd" d="M32.7233 33.9061C32.8515 33.9591 33.0422 34.0022 33.2803 34.0022C33.551 34.0022 33.7743 33.9464 33.9193 33.8773C33.7928 33.817 33.5996 33.7674 33.3599 33.7674C33.093 33.7674 32.8684 33.829 32.7233 33.9061ZM34.0508 33.9666C34.0505 33.9667 34.0486 33.9645 34.046 33.9599C34.0499 33.9642 34.0512 33.9665 34.0508 33.9666ZM34.0502 33.794C34.0533 33.7887 34.0556 33.7863 34.056 33.7864C34.0564 33.7865 34.0548 33.7891 34.0502 33.794ZM32.582 33.826C32.5758 33.8206 32.5737 33.8177 32.5743 33.8176C32.5748 33.8175 32.5779 33.8202 32.582 33.826ZM32.593 34.0023C32.5928 34.0027 32.5926 34.0029 32.5926 34.0029C32.5926 34.0029 32.5927 34.0027 32.593 34.0023ZM32.1944 32.867C32.5242 32.6897 32.9352 32.5938 33.3599 32.5938C33.7835 32.5938 34.1923 32.6893 34.5156 32.8742C34.8203 33.0483 35.1684 33.3818 35.1684 33.8848C35.1684 34.4107 34.7796 34.7403 34.4745 34.9033C34.1398 35.0821 33.7167 35.1759 33.2803 35.1759C32.8454 35.1759 32.4242 35.0827 32.0961 34.8962C31.79 34.7223 31.4117 34.3616 31.476 33.8142C31.5318 33.3387 31.8873 33.0321 32.1944 32.867Z" fill="#111111"/>
<path fill-rule="evenodd" clip-rule="evenodd" d="M38.4264 33.937C38.4261 33.9369 38.4276 33.9348 38.432 33.9307C38.429 33.935 38.4268 33.937 38.4264 33.937ZM38.5698 33.8517C38.6831 33.8053 38.8498 33.7674 39.0598 33.7674C39.3285 33.7674 39.5679 33.8299 39.7319 33.9135C39.7422 33.9188 39.7518 33.9239 39.7609 33.9289C39.647 33.9695 39.4834 34.0022 39.2759 34.0022C38.9856 34.0022 38.7386 33.9379 38.5782 33.8561C38.5753 33.8546 38.5725 33.8532 38.5698 33.8517ZM37.9101 32.8807C38.2288 32.6886 38.6379 32.5938 39.0598 32.5938C39.485 32.5938 39.8996 32.6898 40.236 32.8614C40.5472 33.0201 40.9104 33.309 41.0038 33.763C41.1168 34.3128 40.7642 34.7004 40.4513 34.8889C40.1288 35.0833 39.7092 35.1759 39.2759 35.1759C38.8383 35.1759 38.4143 35.0817 38.0742 34.9082C37.7639 34.75 37.3813 34.446 37.3237 33.9554C37.2618 33.4286 37.6043 33.0649 37.9101 32.8807Z" fill="#111111"/>
<path fill-rule="evenodd" clip-rule="evenodd" d="M44.4262 33.8053C44.4497 33.8184 44.4766 33.8321 44.5073 33.8462C44.7069 33.9381 44.98 34.0022 45.2694 34.0022C45.3998 34.0022 45.5058 33.9894 45.5886 33.9716C45.5611 33.956 45.5297 33.9398 45.4941 33.9234C45.2909 33.8298 45.0259 33.7674 44.7576 33.7674C44.6196 33.7674 44.5095 33.7837 44.4262 33.8053ZM43.6223 32.8998C43.9306 32.6869 44.3403 32.5938 44.7576 32.5938C45.1831 32.5938 45.6062 32.6898 45.9575 32.8515C46.2856 33.0026 46.6539 33.2599 46.8166 33.6556C46.9092 33.8808 46.9225 34.1319 46.8329 34.3704C46.7478 34.5967 46.5903 34.7594 46.4302 34.8699C46.1181 35.0854 45.6972 35.1759 45.2694 35.1759C44.8309 35.1759 44.3988 35.0815 44.0439 34.9181C43.7182 34.7682 43.3333 34.5005 43.1944 34.0704C43.1199 33.8396 43.1285 33.5966 43.223 33.375C43.3131 33.1636 43.4651 33.0084 43.6223 32.8998Z" fill="#111111"/>
<path fill-rule="evenodd" clip-rule="evenodd" d="M19.031 37.9908C19.125 38.0059 19.2381 38.0159 19.3708 38.0159C19.7147 38.0159 20.0526 37.9484 20.3105 37.8472C20.3407 37.8354 20.369 37.8234 20.3954 37.8114C20.2994 37.7934 20.1816 37.7811 20.0419 37.7811C19.7182 37.7811 19.3885 37.8475 19.1278 37.9497C19.0935 37.9632 19.0612 37.9769 19.031 37.9908ZM20.689 37.9176C20.6889 37.9176 20.6884 37.9172 20.6874 37.9162C20.6885 37.9171 20.689 37.9176 20.689 37.9176ZM18.7044 37.8842C18.7029 37.8831 18.7023 37.8825 18.7023 37.8825C18.7024 37.8825 18.7031 37.883 18.7044 37.8842ZM18.7238 36.8525C19.1143 36.6995 19.5808 36.6074 20.0419 36.6074C20.4926 36.6074 20.9317 36.6958 21.2573 36.8988C21.4221 37.0016 21.5955 37.158 21.694 37.3867C21.8009 37.6349 21.7907 37.9027 21.6857 38.1413C21.5877 38.3636 21.4222 38.5288 21.2642 38.647C21.1013 38.7689 20.9114 38.8672 20.7145 38.9444C20.3213 39.0986 19.8459 39.1895 19.3708 39.1895C18.9084 39.1895 18.4585 39.103 18.1299 38.8981C17.9633 38.7943 17.7828 38.6309 17.6898 38.3862C17.5883 38.1192 17.625 37.8455 17.7455 37.6175C17.9484 37.2337 18.3642 36.9935 18.7238 36.8525Z" fill="#111111"/>
<path fill-rule="evenodd" clip-rule="evenodd" d="M25.7081 37.9574C25.8394 37.9914 26.0114 38.0159 26.219 38.0159C26.5634 38.0159 26.8777 37.9482 27.0989 37.8537C27.1036 37.8517 27.1082 37.8497 27.1128 37.8477C26.9809 37.8092 26.8055 37.7811 26.5943 37.7811C26.2705 37.7811 25.9641 37.8475 25.74 37.9433C25.7289 37.948 25.7183 37.9527 25.7081 37.9574ZM27.3376 37.7055C27.3377 37.7055 27.3373 37.706 27.3365 37.7071L27.3376 37.7055ZM25.3047 36.859C25.6777 36.6995 26.1334 36.6074 26.5943 36.6074C27.05 36.6074 27.4903 36.6977 27.8275 36.8834C28.1372 37.054 28.5602 37.444 28.4209 38.0367C28.3609 38.2923 28.208 38.4839 28.058 38.617C27.9052 38.7525 27.7221 38.8577 27.5343 38.938C27.1583 39.0987 26.6935 39.1895 26.219 39.1895C25.751 39.1895 25.3005 39.1009 24.9603 38.9136C24.7904 38.82 24.6105 38.6809 24.4902 38.4767C24.3587 38.2533 24.3186 37.9822 24.4056 37.7129C24.55 37.2657 24.9704 37.0019 25.3047 36.859Z" fill="#111111"/>
<path fill-rule="evenodd" clip-rule="evenodd" d="M32.394 37.9169C32.5583 37.9736 32.7885 38.0159 33.0656 38.0159C33.3755 38.0159 33.6381 37.963 33.8207 37.8922C33.6537 37.8284 33.4189 37.7811 33.1452 37.7811C32.8434 37.7811 32.5791 37.8387 32.394 37.9169ZM31.8816 36.8671C32.2387 36.6992 32.6853 36.6074 33.1452 36.6074C33.6038 36.6074 34.0493 36.6987 34.4 36.8717C34.7021 37.0207 35.1473 37.3481 35.1357 37.9074C35.1308 38.4671 34.6711 38.7853 34.3634 38.9299C34.0024 39.0996 33.5432 39.1895 33.0656 39.1895C32.5895 39.1895 32.1334 39.1001 31.78 38.9248C31.4739 38.773 31.0096 38.4215 31.0793 37.8279C31.1397 37.3137 31.5671 37.0149 31.8816 36.8671Z" fill="#111111"/>
<path fill-rule="evenodd" clip-rule="evenodd" d="M39.072 37.8703C39.2739 37.9542 39.5661 38.0159 39.9007 38.0159C40.1469 38.0159 40.3489 37.9826 40.4971 37.9374C40.2895 37.8464 39.9946 37.7811 39.6732 37.7811C39.428 37.7811 39.2221 37.819 39.072 37.8703ZM40.7203 38.079C40.7203 38.079 40.7199 38.0785 40.7192 38.0774L40.7203 38.079ZM38.4296 36.8768C38.7736 36.6983 39.2157 36.6074 39.6732 36.6074C40.1335 36.6074 40.5867 36.6993 40.9531 36.8621C41.1363 36.9436 41.3155 37.0506 41.4644 37.1888C41.6112 37.3252 41.7578 37.5201 41.8105 37.7767C41.9343 38.3788 41.4858 38.7575 41.1753 38.9195C40.8285 39.1006 40.3754 39.1895 39.9007 39.1895C39.4221 39.1895 38.9591 39.0993 38.59 38.9344C38.4058 38.8521 38.2245 38.7421 38.0765 38.5965C37.9291 38.4513 37.7871 38.2416 37.7551 37.9691C37.687 37.3893 38.1253 37.0347 38.4296 36.8768Z" fill="#111111"/>
<path fill-rule="evenodd" clip-rule="evenodd" d="M45.7784 37.829C45.794 37.8361 45.8104 37.8431 45.8276 37.8501C46.0675 37.948 46.3967 38.0159 46.7474 38.0159C46.9215 38.0159 47.0657 37.9992 47.1795 37.9754C47.159 37.9659 47.1369 37.9562 47.1132 37.9465C46.8722 37.8477 46.5542 37.7811 46.2242 37.7811C46.0426 37.7811 45.8936 37.8011 45.7784 37.829ZM44.9947 36.891C45.3262 36.6965 45.7661 36.6074 46.2242 36.6074C46.6903 36.6074 47.1515 36.6993 47.5331 36.8557C47.8827 36.9991 48.2916 37.249 48.4707 37.6556L48.4767 37.6692L48.4765 37.6693C48.5786 37.9176 48.5755 38.1898 48.4574 38.4339C48.3497 38.6568 48.1707 38.8072 48.0024 38.906C47.6679 39.1022 47.2175 39.1895 46.7474 39.1895C46.2677 39.1895 45.795 39.0989 45.4093 38.9416C45.2165 38.8629 45.0297 38.7611 44.8717 38.6321C44.7179 38.5065 44.5574 38.3268 44.479 38.0841C44.3966 37.829 44.4239 37.5668 44.5441 37.3418C44.6554 37.1334 44.8279 36.9889 44.9947 36.891Z" fill="#111111"/>
<path fill-rule="evenodd" clip-rule="evenodd" d="M16.9727 41.9954C17.1007 42.0166 17.2562 42.0305 17.4384 42.0305C17.8475 42.0305 18.2394 41.9602 18.5345 41.8555C18.5524 41.8492 18.5698 41.8427 18.5866 41.8363C18.4576 41.812 18.2981 41.7958 18.1095 41.7958C17.7199 41.7958 17.3362 41.8653 17.039 41.9707C17.0161 41.9789 16.994 41.9871 16.9727 41.9954ZM16.5783 41.8674C16.5769 41.8664 16.5764 41.8658 16.5764 41.8658C16.5764 41.8658 16.5771 41.8663 16.5783 41.8674ZM16.6691 40.8608C17.0913 40.711 17.6005 40.6221 18.1095 40.6221C18.609 40.6221 19.08 40.7079 19.4286 40.8953C19.6022 40.9887 19.7918 41.1323 19.9115 41.3513C20.0454 41.5962 20.0603 41.8799 19.9524 42.1423L19.9468 42.156L19.9466 42.156C19.8428 42.3917 19.6598 42.5591 19.4936 42.6741C19.32 42.7941 19.1163 42.8902 18.9043 42.9654C18.48 43.116 17.962 43.2042 17.4384 43.2042C16.9261 43.2042 16.4426 43.1197 16.0907 42.9316C15.9166 42.8386 15.7165 42.6889 15.6001 42.4513C15.4668 42.1791 15.4875 41.8823 15.6198 41.6321C15.7337 41.4165 15.9131 41.2592 16.081 41.1471C16.2553 41.0306 16.4579 40.9358 16.6691 40.8608Z" fill="#111111"/>
<path fill-rule="evenodd" clip-rule="evenodd" d="M24.1908 42.1381C24.1907 42.1381 24.1911 42.1376 24.192 42.1366L24.1908 42.1381ZM24.5033 41.9634C24.7662 41.8642 25.1275 41.7958 25.5142 41.7958C25.7718 41.7958 25.9881 41.826 26.1537 41.8694C25.8956 41.9642 25.5363 42.0305 25.1389 42.0305C24.8827 42.0305 24.6685 42.003 24.5033 41.9634ZM26.4603 41.7017C26.4604 41.7017 26.4598 41.7025 26.4583 41.7041C26.4595 41.7025 26.4602 41.7017 26.4603 41.7017ZM24.1012 40.8654C24.5059 40.7108 25.006 40.6221 25.5142 40.6221C26.018 40.6221 26.4934 40.7094 26.8556 40.8842C27.0354 40.971 27.2228 41.0964 27.3606 41.2788C27.5089 41.4749 27.5984 41.7403 27.5378 42.0349L27.5361 42.0432L27.5342 42.0514C27.4699 42.3251 27.2956 42.5204 27.137 42.6486C26.9731 42.7811 26.7762 42.883 26.574 42.9605C26.1682 43.1162 25.6617 43.2042 25.1389 43.2042C24.6218 43.2042 24.1365 43.118 23.7719 42.9421C23.5916 42.855 23.3986 42.7257 23.2619 42.5319C23.1108 42.3176 23.0411 42.0366 23.1274 41.7429C23.2041 41.4817 23.3794 41.2955 23.5382 41.1716C23.703 41.043 23.8993 40.9426 24.1012 40.8654Z" fill="#111111"/>
<path fill-rule="evenodd" clip-rule="evenodd" d="M32.0474 41.927C32.248 41.9877 32.5196 42.0305 32.8394 42.0305C33.1878 42.0305 33.491 41.9796 33.7121 41.9073C33.5105 41.8419 33.2369 41.7958 32.919 41.7958C32.575 41.7958 32.2703 41.8498 32.0474 41.927ZM31.535 40.8714C31.9222 40.7105 32.4118 40.6221 32.919 40.6221C33.4254 40.6221 33.9082 40.7103 34.2857 40.8756C34.4733 40.9577 34.6615 41.0706 34.8111 41.2256C34.963 41.3831 35.1028 41.616 35.1028 41.9131C35.1028 42.2233 34.948 42.4595 34.7918 42.6124C34.6365 42.7644 34.4422 42.8745 34.249 42.9548C33.8594 43.1167 33.3605 43.2042 32.8394 43.2042C32.3192 43.2042 31.8269 43.117 31.4471 42.9507C31.2588 42.8683 31.0668 42.7527 30.9174 42.5893C30.7624 42.4198 30.6307 42.1691 30.6579 41.86C30.6837 41.5666 30.8418 41.3478 30.9958 41.2043C31.1513 41.0593 31.3424 40.9515 31.535 40.8714Z" fill="#111111"/>
<path fill-rule="evenodd" clip-rule="evenodd" d="M39.6002 41.8878C39.8397 41.9718 40.17 42.0305 40.539 42.0305C40.8226 42.0305 41.0636 41.9959 41.2464 41.9462C41.0043 41.8574 40.6731 41.7958 40.3115 41.7958C40.0276 41.7958 39.784 41.8337 39.6002 41.8878ZM41.5502 42.1132C41.5501 42.1132 41.5494 42.1125 41.5482 42.1109C41.5497 42.1124 41.5503 42.1132 41.5502 42.1132ZM39.3009 41.7313C39.2996 41.7299 39.299 41.7292 39.2991 41.7292C39.2991 41.7292 39.2998 41.7299 39.3009 41.7313ZM38.9633 40.8794C39.3329 40.7101 39.8112 40.6221 40.3115 40.6221C40.8145 40.6221 41.3063 40.711 41.7009 40.8684C41.8976 40.9469 42.0903 41.0504 42.2503 41.1855C42.4059 41.3168 42.5742 41.516 42.6308 41.7914C42.6944 42.1008 42.589 42.3718 42.4339 42.5631C42.2897 42.741 42.0966 42.8627 41.9128 42.9469C41.5408 43.1172 41.0529 43.2042 40.539 43.2042C40.0219 43.2042 39.5209 43.1162 39.124 42.9578C38.9266 42.8791 38.7314 42.7736 38.5716 42.6327C38.4151 42.4946 38.2462 42.2797 38.2114 41.9837C38.1757 41.6793 38.2955 41.4256 38.4469 41.2498C38.5917 41.0818 38.78 40.9634 38.9633 40.8794Z" fill="#111111"/>
<path fill-rule="evenodd" clip-rule="evenodd" d="M47.1616 41.8521C47.1666 41.854 47.1716 41.8559 47.1767 41.8577C47.4555 41.9603 47.8365 42.0305 48.2397 42.0305C48.4561 42.0305 48.6393 42.0104 48.7855 41.9805C48.7752 41.9765 48.7647 41.9725 48.7539 41.9685C48.4728 41.8651 48.1 41.7958 47.7165 41.7958C47.4959 41.7958 47.3091 41.8186 47.1616 41.8521ZM46.8445 41.6771C46.8438 41.6763 46.8435 41.6759 46.8435 41.6759L46.8445 41.6771ZM46.3922 40.8891C46.7473 40.709 47.2195 40.6221 47.7165 40.6221C48.2202 40.6221 48.7231 40.7112 49.1359 40.863C49.3422 40.9389 49.5414 41.0362 49.7111 41.1579C49.8738 41.2747 50.0527 41.4452 50.1509 41.6839C50.2647 41.9607 50.2362 42.2538 50.0904 42.4961C49.962 42.7096 49.7661 42.8476 49.5896 42.9371C49.2321 43.1185 48.7499 43.2042 48.2397 43.2042C47.7216 43.2042 47.2097 43.1159 46.7947 42.9632C46.5877 42.8871 46.387 42.7884 46.2179 42.6624C46.0562 42.542 45.8735 42.3593 45.7894 42.0987C45.6975 41.8144 45.7518 41.5337 45.8964 41.312C46.0269 41.1119 46.2162 40.9784 46.3922 40.8891Z" fill="#111111"/>
<path fill-rule="evenodd" clip-rule="evenodd" d="M14.9477 46.0012C15.1073 46.0273 15.3013 46.0442 15.5267 46.0442C15.993 46.0442 16.4352 45.9721 16.7662 45.8645C16.7733 45.8621 16.7804 45.8598 16.7874 45.8574C16.6261 45.8284 16.4283 45.8094 16.1978 45.8094C15.7506 45.8094 15.3168 45.8809 14.984 45.9892C14.9717 45.9932 14.9596 45.9972 14.9477 46.0012ZM14.6421 44.8698C15.0941 44.7227 15.6441 44.6357 16.1978 44.6357C16.743 44.6357 17.2507 44.7201 17.6236 44.8954C17.8059 44.9811 18.0124 45.1148 18.15 45.3271C18.3101 45.5741 18.3439 45.8814 18.2169 46.1696C18.1075 46.4181 17.907 46.587 17.7343 46.6982C17.551 46.8161 17.3344 46.9102 17.1081 46.9839C16.6543 47.1315 16.0955 47.2179 15.5267 47.2179C14.9678 47.2179 14.4503 47.1344 14.0754 46.9582C13.8934 46.8727 13.6793 46.7347 13.544 46.5082C13.3824 46.2378 13.381 45.9203 13.5261 45.6458C13.6461 45.4189 13.8413 45.2602 14.0164 45.151C14.2006 45.0362 14.4162 44.9432 14.6421 44.8698Z" fill="#111111"/>
<path fill-rule="evenodd" clip-rule="evenodd" d="M22.9296 46.1706C22.9296 46.1706 22.93 46.17 22.9309 46.1691L22.9296 46.1706ZM23.3231 45.9724C23.6181 45.8752 24.0144 45.8094 24.4434 45.8094C24.74 45.8094 24.995 45.8408 25.1942 45.8876C24.902 45.9808 24.5055 46.0442 24.068 46.0442C23.7734 46.0442 23.5213 46.0154 23.3231 45.9724ZM25.5806 45.6987C25.5807 45.6987 25.5798 45.6998 25.5776 45.702C25.5794 45.6997 25.5805 45.6987 25.5806 45.6987ZM22.9203 44.8736C23.3526 44.7226 23.8902 44.6357 24.4434 44.6357C24.992 44.6357 25.5067 44.7212 25.8951 44.8873C26.0861 44.9689 26.2884 45.0877 26.44 45.2646C26.6047 45.4566 26.7218 45.7396 26.6453 46.0651C26.5769 46.3561 26.3808 46.5538 26.2159 46.6764C26.0421 46.8056 25.8326 46.9046 25.6167 46.98C25.1825 47.1317 24.636 47.2179 24.068 47.2179C23.5053 47.2179 22.9811 47.1332 22.5907 46.9663C22.3998 46.8847 22.1921 46.7629 22.041 46.5756C21.8711 46.3649 21.7748 46.0646 21.8793 45.7412C21.9657 45.4738 22.1572 45.29 22.3228 45.1713C22.4971 45.0464 22.7049 44.9488 22.9203 44.8736Z" fill="#111111"/>
<path fill-rule="evenodd" clip-rule="evenodd" d="M31.3429 46.1202C31.3429 46.1202 31.3436 46.1193 31.3452 46.1177C31.3438 46.1194 31.343 46.1202 31.3429 46.1202ZM31.7201 45.9399C31.9754 45.8623 32.3166 45.8094 32.7013 45.8094C33.0581 45.8094 33.3693 45.8549 33.6045 45.9216C33.3495 45.9945 33.0089 46.0442 32.6217 46.0442C32.265 46.0442 31.9553 46.0021 31.7201 45.9399ZM31.2095 44.8783C31.6231 44.7223 32.1493 44.6357 32.7013 44.6357C33.2525 44.6357 33.7737 44.722 34.178 44.8812C34.3782 44.96 34.579 45.0681 34.7397 45.2179C34.9003 45.3677 35.0671 45.6063 35.0671 45.9268C35.0671 46.2601 34.8845 46.5009 34.7211 46.6456C34.5553 46.7924 34.3487 46.8982 34.1428 46.9756C33.7261 47.1321 33.1881 47.2179 32.6217 47.2179C32.0564 47.2179 31.5233 47.1324 31.116 46.9727C30.9154 46.8941 30.7093 46.7836 30.5481 46.6248C30.3823 46.4615 30.22 46.1971 30.2601 45.8562C30.2959 45.5511 30.4758 45.3343 30.6366 45.1989C30.8019 45.0595 31.0041 44.9557 31.2095 44.8783Z" fill="#111111"/>
<path fill-rule="evenodd" clip-rule="evenodd" d="M40.1142 45.9054C40.3857 45.9879 40.752 46.0442 41.1642 46.0442C41.4937 46.0442 41.7768 46.0082 41.9947 45.955C41.7211 45.8683 41.3541 45.8094 40.9481 45.8094C40.6186 45.8094 40.3331 45.8482 40.1142 45.9054ZM42.3772 46.1428C42.3771 46.1428 42.3761 46.1418 42.3744 46.1396C42.3764 46.1417 42.3773 46.1428 42.3772 46.1428ZM39.7363 45.7284C39.7342 45.7264 39.7333 45.7254 39.7334 45.7254C39.7335 45.7254 39.7345 45.7264 39.7363 45.7284ZM39.4821 44.8837C39.8793 44.7217 40.398 44.6357 40.9481 44.6357C41.5007 44.6357 42.0326 44.7224 42.455 44.8759C42.665 44.9523 42.8698 45.053 43.0393 45.1853C43.2016 45.312 43.3895 45.5137 43.4494 45.805C43.5185 46.1415 43.3821 46.4222 43.2144 46.6044C43.0576 46.7747 42.8517 46.8899 42.6557 46.9699C42.2567 47.1327 41.7285 47.2179 41.1642 47.2179C40.5969 47.2179 40.0559 47.1319 39.6317 46.9777C39.4213 46.9012 39.2142 46.7988 39.045 46.6613C38.882 46.5289 38.6915 46.311 38.6546 45.9974C38.6159 45.6673 38.765 45.4055 38.9277 45.238C39.0847 45.0763 39.2862 44.9637 39.4821 44.8837Z" fill="#111111"/>
<path fill-rule="evenodd" clip-rule="evenodd" d="M48.5155 45.8733C48.8266 45.9752 49.2491 46.0442 49.7055 46.0442C49.9695 46.0442 50.195 46.0211 50.3756 45.9861C50.0611 45.8805 49.6395 45.8094 49.1936 45.8094C48.9262 45.8094 48.6974 45.8349 48.5155 45.8733ZM48.1216 45.6791C48.1205 45.6779 48.12 45.6773 48.1201 45.6773C48.1201 45.6773 48.1207 45.6779 48.1216 45.6791ZM47.755 44.8909C48.1358 44.7208 48.6464 44.6357 49.1936 44.6357C49.7471 44.6357 50.2909 44.7226 50.7325 44.8717C50.9527 44.946 51.1641 45.0414 51.343 45.1614C51.5124 45.275 51.707 45.4471 51.81 45.6976C51.9348 46.0013 51.8787 46.3112 51.7106 46.5475C51.5659 46.7509 51.3563 46.8794 51.1697 46.9627C50.7869 47.1337 50.2667 47.2179 49.7055 47.2179C49.1371 47.2179 48.5845 47.1316 48.141 46.9819C47.9203 46.9074 47.7075 46.8108 47.5293 46.6871C47.3615 46.5706 47.1616 46.3862 47.0731 46.1124C46.9725 45.8008 47.0552 45.5056 47.2191 45.2906C47.365 45.0992 47.5682 44.9743 47.755 44.8909Z" fill="#111111"/>
<defs>
<linearGradient id="paint0_linear_133_703" x1="32.6763" y1="10" x2="32.6763" y2="42" gradientUnits="userSpaceOnUse">
<stop stop-color="#C00F41" stop-opacity="0.8"/>
<stop offset="1" stop-color="#C00F41" stop-opacity="0"/>
</linearGradient>
<linearGradient id="paint1_linear_133_703" x1="23.0845" y1="18" x2="23.0845" y2="41" gradientUnits="userSpaceOnUse">
<stop stop-color="#C00F41" stop-opacity="0.8"/>
<stop offset="1" stop-color="#C00F41" stop-opacity="0.1"/>
</linearGradient>
<linearGradient id="paint2_linear_133_703" x1="43.0845" y1="18" x2="43.0845" y2="41" gradientUnits="userSpaceOnUse">
<stop stop-color="#C00F41" stop-opacity="0.8"/>
<stop offset="1" stop-color="#C00F41" stop-opacity="0.1"/>
</linearGradient>
<linearGradient id="paint3_linear_133_703" x1="33.2542" y1="38" x2="32.764" y2="56.0005" gradientUnits="userSpaceOnUse">
<stop stop-color="#C00F41"/>
<stop offset="1" stop-color="#C00F41" stop-opacity="0.1"/>
</linearGradient>
</defs>
</svg>
