<svg width="65" height="65" viewBox="0 0 65 65" fill="none" xmlns="http://www.w3.org/2000/svg">
<path fill-rule="evenodd" clip-rule="evenodd" d="M44.119 16.2068C44.5569 15.8701 45.1847 15.9522 45.5213 16.39L50.9144 23.4046C51.251 23.8424 51.1689 24.4703 50.7311 24.8069C50.2933 25.1435 49.6654 25.0615 49.3288 24.6236L43.9358 17.609C43.5991 17.1712 43.6812 16.5434 44.119 16.2068Z" fill="#C00F41"/>
<path fill-rule="evenodd" clip-rule="evenodd" d="M38.2167 16.3571C38.6545 16.0205 39.2823 16.1026 39.619 16.5404L49.7679 29.7408C50.1045 30.1786 50.0224 30.8064 49.5846 31.1431C49.1468 31.4797 48.5189 31.3976 48.1823 30.9598L38.0334 17.7594C37.6968 17.3216 37.7788 16.6938 38.2167 16.3571Z" fill="#C00F41"/>
<path fill-rule="evenodd" clip-rule="evenodd" d="M54 13H10C9.44772 13 9 13.4477 9 14V39C9 39.5523 9.44772 40 10 40H54C54.5523 40 55 39.5523 55 39V14C55 13.4477 54.5523 13 54 13ZM10 11C8.34315 11 7 12.3431 7 14V39C7 40.6569 8.34315 42 10 42H54C55.6569 42 57 40.6569 57 39V14C57 12.3431 55.6569 11 54 11H10Z" fill="#111111"/>
<path fill-rule="evenodd" clip-rule="evenodd" d="M56 38H8V36H56V38Z" fill="#111111"/>
<path fill-rule="evenodd" clip-rule="evenodd" d="M33.0001 45.1217V42H35.0001V45.1217C35.0001 45.5366 35.2563 45.9085 35.6441 46.0562L44.0541 49.26C44.9248 49.5917 45.5001 50.4265 45.5001 51.3582C45.5001 52.8449 44.0811 53.9212 42.6494 53.5203L31.7305 50.463L32.2697 48.537L43.1887 51.5944C43.3451 51.6381 43.5001 51.5206 43.5001 51.3582C43.5001 51.2564 43.4373 51.1652 43.3422 51.129L34.9321 47.9252C33.7688 47.482 33.0001 46.3665 33.0001 45.1217Z" fill="black"/>
<path fill-rule="evenodd" clip-rule="evenodd" d="M31.4999 45.1217V42H29.4999V45.1217C29.4999 45.5366 29.2437 45.9085 28.8559 46.0562L20.4459 49.26C19.5752 49.5917 18.9999 50.4265 18.9999 51.3582C18.9999 52.8449 20.4189 53.9212 21.8506 53.5203L32.7695 50.463L32.2303 48.537L21.3113 51.5944C21.1549 51.6381 20.9999 51.5206 20.9999 51.3582C20.9999 51.2564 21.0627 51.1652 21.1578 51.129L29.5679 47.9252C30.7312 47.482 31.4999 46.3665 31.4999 45.1217Z" fill="black"/>
</svg>
