<svg width="65" height="65" viewBox="0 0 65 65" fill="none" xmlns="http://www.w3.org/2000/svg">
<path fill-rule="evenodd" clip-rule="evenodd" d="M29.4243 11.2872C31.6109 12.3947 33.6858 14.0266 35.1116 15.3523C35.7176 15.9157 36.0263 16.6982 36.0263 17.4867V23.1582C36.0263 24.7917 34.6759 26.2226 32.9347 26.0694C27.3833 25.5807 24.1195 23.1252 22.4422 20.1671C20.8012 17.2731 20.7418 14.0052 21.3685 11.9257C21.5558 11.3043 21.9926 10.751 22.6291 10.4594C24.7672 9.47965 27.2964 10.2095 29.4243 11.2872ZM28.5206 13.0714C26.4953 12.0456 24.7152 11.7035 23.4622 12.2776C23.3933 12.3092 23.32 12.3813 23.2834 12.5028C22.8031 14.0967 22.8293 16.7951 24.182 19.1806C25.4983 21.5021 28.1362 23.6393 33.11 24.0771C33.5694 24.1175 34.0263 23.7339 34.0263 23.1582V17.4867C34.0263 17.2143 33.9207 16.9759 33.7497 16.817C32.4091 15.5704 30.4871 14.0674 28.5206 13.0714Z" fill="#C00F41"/>
<path fill-rule="evenodd" clip-rule="evenodd" d="M27.3449 16.9254C27.7497 16.5496 28.3824 16.573 28.7582 16.9778L35.2582 23.9778L33.7926 25.3387L27.2926 18.3387C26.9168 17.9339 26.9402 17.3012 27.3449 16.9254Z" fill="#C00F41"/>
<path fill-rule="evenodd" clip-rule="evenodd" d="M40.6285 11.2872C38.4418 12.3947 36.3669 14.0266 34.9411 15.3523C34.3351 15.9157 34.0264 16.6982 34.0264 17.4867V23.1582C34.0264 24.7917 35.3769 26.2226 37.1181 26.0694C42.6695 25.5807 45.9332 23.1252 47.6105 20.1671C49.2515 17.2731 49.3109 14.0052 48.6842 11.9257C48.497 11.3043 48.0602 10.751 47.4237 10.4594C45.2855 9.47965 42.7563 10.2095 40.6285 11.2872ZM41.5321 13.0714C43.5574 12.0456 45.3376 11.7035 46.5905 12.2776C46.6594 12.3092 46.7327 12.3813 46.7693 12.5028C47.2496 14.0967 47.2234 16.7951 45.8708 19.1806C44.5544 21.5021 41.9165 23.6393 36.9427 24.0771C36.4833 24.1175 36.0264 23.7339 36.0264 23.1582V17.4867C36.0264 17.2143 36.1321 16.9759 36.303 16.817C37.6436 15.5704 39.5656 14.0674 41.5321 13.0714Z" fill="#C00F41"/>
<path fill-rule="evenodd" clip-rule="evenodd" d="M42.7078 16.9254C42.3031 16.5496 41.6703 16.573 41.2945 16.9778L34.7945 23.9778L36.2601 25.3387L42.7601 18.3387C43.1359 17.9339 43.1125 17.3012 42.7078 16.9254Z" fill="#C00F41"/>
<path fill-rule="evenodd" clip-rule="evenodd" d="M36.0254 24.6582V31.1582H34.0254V24.6582H36.0254Z" fill="#C00F41"/>
<path fill-rule="evenodd" clip-rule="evenodd" d="M23.8237 34.5324C23.5332 34.3024 23.1394 34.2519 22.8002 34.4011L12.5973 38.8904C12.2343 39.0501 12 39.4092 12 39.8057V51.5007C12 52.053 11.5523 52.5007 11 52.5007C10.4477 52.5007 10 52.053 10 51.5007V39.8057C10 38.6161 10.7029 37.5389 11.7918 37.0598L21.9948 32.5705C23.0121 32.1228 24.1936 32.2744 25.0651 32.9643L35.0564 40.8741C36.0202 41.6371 36.421 42.9108 36.0678 44.0883L34.9578 47.7881C34.7991 48.317 34.2416 48.6172 33.7127 48.4585C33.1837 48.2998 32.8835 47.7424 33.0422 47.2134L34.1521 43.5136C34.2699 43.1211 34.1363 42.6965 33.815 42.4422L23.8237 34.5324Z" fill="black"/>
<path fill-rule="evenodd" clip-rule="evenodd" d="M31.764 33.12C30.4074 34.2452 29.0754 35.6726 28.2689 36.6405L26.7324 35.3601C27.5925 34.328 29.0105 32.8054 30.4872 31.5806C31.2239 30.9696 32.0062 30.4065 32.7644 30.0192C33.4893 29.6488 34.3581 29.352 35.1968 29.5197C35.9777 29.6759 37.088 30.1433 38.2887 30.8491C39.5089 31.5664 40.8867 32.5676 42.1987 33.8468C44.8202 36.4027 47.2313 40.1244 47.4991 44.9448L45.5022 45.0558C45.27 40.8762 43.1811 37.5979 40.8025 35.2788C39.6146 34.1205 38.3674 33.2154 37.2751 32.5733C36.1633 31.9198 35.2736 31.5747 34.8045 31.4809C34.6432 31.4486 34.2828 31.4893 33.6744 31.8002C33.0992 32.094 32.4441 32.556 31.764 33.12Z" fill="black"/>
<path fill-rule="evenodd" clip-rule="evenodd" d="M24.7154 40.3804C25.0576 39.9469 25.6864 39.8729 26.1199 40.2152L35.0749 47.2849C35.2514 47.4243 35.4697 47.5 35.6946 47.5H40.9463C41.1284 47.5 41.3039 47.451 41.456 47.359C42.5568 46.6928 44.7472 45.354 47.4703 43.6521C48.8062 42.8171 50.0584 42.5917 51.1744 42.8666C52.2653 43.1354 53.0622 43.8423 53.5943 44.5549C54.599 45.9002 53.8228 47.4869 52.7839 48.1795L44.0588 53.9962C43.566 54.3248 42.987 54.5001 42.3947 54.5001H32.892C32.5039 54.5001 32.1195 54.4248 31.7601 54.2784L19.4053 49.2449C19.1552 49.143 18.8745 49.1466 18.6272 49.2548L11.4011 52.4163C10.8951 52.6376 10.3055 52.4069 10.0841 51.9009C9.86273 51.3949 10.0935 50.8053 10.5994 50.5839L17.8255 47.4225C18.5677 47.0978 19.4096 47.0871 20.1599 47.3927L32.5147 52.4262C32.6345 52.475 32.7627 52.5001 32.892 52.5001H42.3947C42.5921 52.5001 42.7851 52.4417 42.9494 52.3321L51.6745 46.5154C51.8697 46.3853 51.9907 46.2062 52.0344 46.0555C52.0729 45.9226 52.0516 45.8315 51.9919 45.7516C51.6381 45.2779 51.1995 44.9326 50.696 44.8086C50.2176 44.6907 49.5164 44.7318 48.5303 45.3481C45.799 47.0551 43.6004 48.3989 42.4915 49.07C42.0234 49.3534 41.4891 49.5 40.9463 49.5H35.6946C35.02 49.5 34.3651 49.2727 33.8356 48.8547L24.8806 41.7849C24.4471 41.4427 24.3731 40.8139 24.7154 40.3804Z" fill="black"/>
<path fill-rule="evenodd" clip-rule="evenodd" d="M15 33C15.5523 33 16 33.4477 16 34V53C16 53.5523 15.5523 54 15 54C14.4477 54 14 53.5523 14 53V34C14 33.4477 14.4477 33 15 33Z" fill="black"/>
</svg>
