<svg width="65" height="65" viewBox="0 0 65 65" fill="none" xmlns="http://www.w3.org/2000/svg">
<path fill-rule="evenodd" clip-rule="evenodd" d="M48 30H42V53H51V33C51 31.3431 49.6569 30 48 30ZM40 28V55H53V33C53 30.2386 50.7614 28 48 28H40Z" fill="#C00F41"/>
<path fill-rule="evenodd" clip-rule="evenodd" d="M37 13H17C15.3431 13 14 14.3431 14 16V53H40V16C40 14.3431 38.6569 13 37 13ZM17 11C14.2386 11 12 13.2386 12 16V55H42V16C42 13.2386 39.7614 11 37 11H17Z" fill="#111111"/>
<path fill-rule="evenodd" clip-rule="evenodd" d="M31 42H24C22.3431 42 21 43.3431 21 45V53H34V45C34 43.3431 32.6569 42 31 42ZM24 40C21.2386 40 19 42.2386 19 45V55H36V45C36 42.2386 33.7614 40 31 40H24Z" fill="#111111"/>
<path d="M18 19.5C18 18.6716 18.6716 18 19.5 18H23.5C24.3284 18 25 18.6716 25 19.5C25 20.3284 24.3284 21 23.5 21H19.5C18.6716 21 18 20.3284 18 19.5Z" fill="#111111"/>
<path d="M18 26.5C18 25.6716 18.6716 25 19.5 25H23.5C24.3284 25 25 25.6716 25 26.5C25 27.3284 24.3284 28 23.5 28H19.5C18.6716 28 18 27.3284 18 26.5Z" fill="#111111"/>
<path d="M18 33.5C18 32.6716 18.6716 32 19.5 32H23.5C24.3284 32 25 32.6716 25 33.5C25 34.3284 24.3284 35 23.5 35H19.5C18.6716 35 18 34.3284 18 33.5Z" fill="#111111"/>
<path d="M29 19.5C29 18.6716 29.6716 18 30.5 18H34.5C35.3284 18 36 18.6716 36 19.5C36 20.3284 35.3284 21 34.5 21H30.5C29.6716 21 29 20.3284 29 19.5Z" fill="#111111"/>
<path d="M29 26.5C29 25.6716 29.6716 25 30.5 25H34.5C35.3284 25 36 25.6716 36 26.5C36 27.3284 35.3284 28 34.5 28H30.5C29.6716 28 29 27.3284 29 26.5Z" fill="#111111"/>
<path d="M29 33.5C29 32.6716 29.6716 32 30.5 32H34.5C35.3284 32 36 32.6716 36 33.5C36 34.3284 35.3284 35 34.5 35H30.5C29.6716 35 29 34.3284 29 33.5Z" fill="#111111"/>
<path fill-rule="evenodd" clip-rule="evenodd" d="M26 55V40H28V55H26Z" fill="#111111"/>
</svg>
